<?xml version="1.0" encoding="UTF-8"?>
<svg version="1.1" xmlns="http://www.w3.org/2000/svg" width="1024" height="1024">
<path d="M0 0 C337.92 0 675.84 0 1024 0 C1024 337.92 1024 675.84 1024 1024 C686.08 1024 348.16 1024 0 1024 C0 686.08 0 348.16 0 0 Z " fill="#FAF7F1" transform="translate(0,0)"/>
<path d="M0 0 C1.42752222 -0.00374019 2.85504239 -0.00834318 4.28255934 -0.01373065 C8.1918951 -0.02593093 12.1011451 -0.02570368 16.01049554 -0.02334189 C20.23223517 -0.02293296 24.45394757 -0.03398029 28.67567444 -0.04345703 C36.94274339 -0.06005272 45.20978382 -0.06556597 53.47686804 -0.06668179 C60.20042792 -0.06763313 66.92397841 -0.07174776 73.64753532 -0.07808304 C92.72641231 -0.09569313 111.80526683 -0.10492251 130.884152 -0.10342209 C131.91217539 -0.10334218 132.94019878 -0.10326227 133.99937439 -0.10317993 C135.02865905 -0.10309817 136.0579437 -0.10301641 137.11841881 -0.10293217 C153.78822059 -0.10211979 170.45793191 -0.12124596 187.12770755 -0.14945666 C204.26015769 -0.17822057 221.39256377 -0.19199497 238.52503866 -0.19026911 C248.13707292 -0.18960632 257.7490124 -0.19504955 267.36102486 -0.21662521 C275.54737239 -0.23488341 283.73358218 -0.23914654 291.91994131 -0.22560637 C296.09197559 -0.21909947 300.26374599 -0.21887634 304.43575478 -0.23631287 C308.26490603 -0.25215089 312.09358653 -0.24907209 315.92272704 -0.2317446 C317.94331407 -0.22726934 319.96391633 -0.2422475 321.98444515 -0.25822389 C335.02482313 -0.16100176 347.28461375 2.42724542 357.96543884 10.26742554 C358.67184509 10.78047241 359.37825134 11.29351929 360.10606384 11.82211304 C368.68811052 18.66809684 373.48934459 27.7278633 375.96543884 38.26742554 C376.14438375 39.01383993 376.32332867 39.76025433 376.50769615 40.52928734 C377.93971657 47.02253251 378.27037113 53.23232455 378.2842865 59.86752319 C378.29433212 60.9808905 378.30437775 62.09425781 378.31472778 63.24136353 C378.34539388 66.88806688 378.36254875 70.53469738 378.37950134 74.18148804 C378.39822631 76.72311014 378.41780071 79.26472612 378.43818665 81.80633545 C378.48415348 87.7912766 378.52161162 93.7762114 378.55485952 99.76123178 C378.59322724 106.58122197 378.64259843 113.40111906 378.69284368 120.22103047 C378.79585727 134.23642624 378.88521596 148.2518821 378.96543884 162.26742554 C379.62463821 161.27842255 380.28383759 160.28941956 380.9630127 159.27044678 C385.42802793 152.57195711 389.8939994 145.87412614 394.36778259 139.18148804 C406.20763056 121.50021045 406.20763056 121.50021045 417.83409119 103.67855835 C423.182046 95.35481086 428.60815397 87.08162734 434.04356384 78.81478882 C434.65388458 77.88649765 434.65388458 77.88649765 435.27653503 76.93945312 C436.0789713 75.71899293 436.88150085 74.49859407 437.68412781 73.27825928 C439.85614894 69.97157541 442.00596498 66.65230084 444.12950134 63.31430054 C448.32923729 56.74949106 452.35824677 50.65460107 458.96543884 46.26742554 C459.56872009 45.83945679 460.17200134 45.41148804 460.79356384 44.97055054 C468.40782318 40.59385029 478.50937629 41.15954568 486.96543884 42.26742554 C491.48491691 43.51028201 495.08107977 45.72461943 498.96543884 48.26742554 C500.67360065 49.33619062 502.38339543 50.40234791 504.09434509 51.46664429 C508.8818695 54.46410466 513.62851158 57.52081394 518.36729431 60.59457397 C520.64847388 62.06334323 522.94241417 63.50570025 525.25059509 64.93148804 C536.59178799 71.95690201 543.66183517 78.35661451 547.96543884 91.26742554 C549.41591279 111.84391639 537.76627143 127.02372617 526.62385559 143.26379395 C523.4063885 147.95448617 520.21455296 152.66258839 517.02012634 157.36898804 C516.35941635 158.34124832 515.69870636 159.31350861 515.01797485 160.31523132 C507.70990015 171.08550635 500.54898366 181.95172968 493.40293884 192.82992554 C492.81122894 193.7306076 492.21951904 194.63128967 491.60987854 195.55926514 C491.03281158 196.43773102 490.45574463 197.3161969 489.8611908 198.22128296 C488.72798951 199.94631114 487.59477046 201.67132764 486.46153259 203.39633179 C485.91604263 204.22687576 485.37055267 205.05741974 484.80853271 205.91313171 C479.65529526 213.75277856 474.45370923 221.55979073 469.2403717 229.35955811 C467.4955199 231.97063359 465.75382186 234.58380652 464.01231384 237.19711304 C462.91335551 238.84555054 461.81439718 240.49398804 460.71543884 242.14242554 C460.16887634 242.96226929 459.62231384 243.78211304 459.05918884 244.62680054 C453.19900004 253.41708374 447.33881124 262.20736694 441.47862244 270.99765015 C440.94059998 271.80468384 440.40257751 272.61171753 439.84825134 273.44320679 C433.22064718 283.38461304 426.59304301 293.32601929 419.96543884 303.26742554 C419.52621094 303.9262674 419.08698303 304.58510925 418.63444519 305.26391602 C418.22305298 305.88100433 417.81166077 306.49809265 417.38780212 307.13388062 C416.98726624 307.73468445 416.58673035 308.33548828 416.17405701 308.95449829 C414.97251892 310.75680542 413.77098083 312.55911255 412.56944275 314.36141968 C412.15494873 314.98316071 411.74045471 315.60490173 411.31340027 316.2454834 C410.35567729 317.68206787 409.39795431 319.11865234 408.44023132 320.55523682 C407.90504883 321.35801056 407.36986633 322.1607843 406.81846619 322.98788452 C406.26661652 323.81565903 405.71476685 324.64343353 405.14619446 325.49629211 C404.58381073 326.33986771 404.021427 327.1834433 403.44200134 328.05258179 C383.96543884 357.26742554 383.96543884 357.26742554 381.82894897 359.93466187 C379.37525212 364.32293516 379.41129091 367.67388154 379.46714783 372.61483765 C379.45886963 373.99915482 379.45886963 373.99915482 379.45042419 375.41143799 C379.44112033 377.41004755 379.44098566 379.40871639 379.44901848 381.40733147 C379.46168786 384.58369657 379.45031822 387.75919743 379.4329834 390.93553162 C379.40627764 396.54727271 379.40068699 402.15880161 379.40208435 407.77059937 C379.40431086 416.71926985 379.3898389 425.66767478 379.34649849 434.61624336 C379.33676115 437.72187232 379.34532951 440.82707412 379.35519409 443.93269348 C379.33446851 462.86039094 377.4030286 480.85206966 364.00059509 495.40023804 C350.62053802 508.12701927 334.10647752 510.74067465 316.25836182 510.64837646 C314.83105892 510.65184259 313.4037587 510.6566135 311.97646397 510.6625582 C308.09571411 510.67496648 304.21518839 510.66894486 300.3344382 510.65959954 C296.13332926 510.65276739 291.93225689 510.66331065 287.7311554 510.67153931 C279.51836662 510.68483364 271.3056604 510.68201846 263.09286848 510.67330138 C256.41613508 510.66650963 249.7394247 510.66561455 243.06268883 510.66887283 C242.11026201 510.66933253 241.15783519 510.66979223 240.17654696 510.67026586 C238.24138647 510.67122509 236.30622599 510.67219773 234.37106552 510.67318363 C216.25396432 510.68172457 198.13690876 510.67192306 180.01981505 510.65578254 C164.48856461 510.64237405 148.95738143 510.64471434 133.4261322 510.65853882 C115.36654259 510.67460638 97.30699289 510.68090753 79.24739712 510.67170203 C77.32051194 510.67074643 75.39362676 510.66980331 73.46674156 510.66887283 C72.04483099 510.66817859 72.04483099 510.66817859 70.59419495 510.66747033 C63.92716991 510.66488446 57.26017029 510.66924261 50.59314919 510.67631149 C42.46613094 510.68473948 34.33919959 510.6824188 26.21219126 510.66646926 C22.06901244 510.65860502 17.92597831 510.65546341 13.78280067 510.66541672 C9.9849981 510.67440216 6.1874734 510.669368 2.38969579 510.65348406 C0.37639297 510.64858297 -1.63692937 510.658298 -3.65021151 510.66865575 C-19.72633035 510.56514686 -33.33507086 505.46906519 -45.03456116 494.26742554 C-55.58484541 482.42376143 -59.21616412 469.34371993 -59.13221741 453.83773804 C-59.13080246 452.8474057 -59.12938751 451.85707336 -59.12792969 450.83673096 C-59.12235367 447.6885978 -59.10980557 444.54053702 -59.09706116 441.39242554 C-59.09204306 439.25180157 -59.08748069 437.11117648 -59.08338928 434.97055054 C-59.0723921 429.73615104 -59.05567791 424.50179346 -59.03456116 419.26742554 C-60.33651428 419.31383179 -61.63846741 419.36023804 -62.97987366 419.40805054 C-64.70641312 419.445584 -66.43297752 419.48198247 -68.15956116 419.51742554 C-69.01549866 419.55094116 -69.87143616 419.58445679 -70.75331116 419.61898804 C-76.38692512 419.70565902 -79.57664238 419.05769969 -84.03456116 415.26742554 C-86.62830085 412.17167172 -87.05492768 410.83768824 -86.90956116 406.76742554 C-85.6661855 401.79392289 -84.32201492 399.12572805 -80.03456116 396.26742554 C-73.10456116 396.26742554 -66.17456116 396.26742554 -59.03456116 396.26742554 C-59.03456116 378.11742554 -59.03456116 359.96742554 -59.03456116 341.26742554 C-66.29456116 341.26742554 -73.55456116 341.26742554 -81.03456116 341.26742554 C-88.0027796 333.13783735 -88.0027796 333.13783735 -87.63221741 328.26351929 C-86.50719826 324.50610241 -84.00069074 321.75724234 -81.03456116 319.26742554 C-74.07036702 316.94602749 -66.37546634 318.26742554 -59.03456116 318.26742554 C-59.03456116 299.78742554 -59.03456116 281.30742554 -59.03456116 262.26742554 C-66.29456116 262.26742554 -73.55456116 262.26742554 -81.03456116 262.26742554 C-86.92817818 256.37380852 -86.92817818 256.37380852 -87.34706116 252.01742554 C-86.97784269 247.58680388 -85.86617268 245.64962819 -83.03456116 242.26742554 C-79.03456116 240.26742554 -79.03456116 240.26742554 -59.03456116 239.26742554 C-59.03456116 221.11742554 -59.03456116 202.96742554 -59.03456116 184.26742554 C-66.29456116 184.26742554 -73.55456116 184.26742554 -81.03456116 184.26742554 C-87.01130534 179.48603019 -87.01130534 179.48603019 -88.03456116 174.26742554 C-87.95534398 169.75204626 -87.54168934 167.86557673 -84.59706116 164.39242554 C-76.35005701 157.55344649 -75.09358148 161.26742554 -59.03456116 161.26742554 C-59.03456116 142.45742554 -59.03456116 123.64742554 -59.03456116 104.26742554 C-66.29456116 104.26742554 -73.55456116 104.26742554 -81.03456116 104.26742554 C-86.91769178 99.56092104 -86.91769178 99.56092104 -88.03456116 96.26742554 C-88.22206116 94.08383179 -88.22206116 94.08383179 -88.03456116 91.82992554 C-87.99331116 91.0887146 -87.95206116 90.34750366 -87.90956116 89.58383179 C-86.54630217 85.97484706 -84.43872327 83.91464068 -81.03456116 82.26742554 C-77.2186175 81.67752297 -73.508898 81.79350173 -69.65956116 81.95492554 C-68.63733459 81.97748413 -67.61510803 82.00004272 -66.56190491 82.02328491 C-64.05126535 82.08194471 -61.54368736 82.16396626 -59.03456116 82.26742554 C-59.05027161 81.341073 -59.06598206 80.41472046 -59.08216858 79.46029663 C-59.13395175 75.95258753 -59.17122346 72.44529694 -59.19935608 68.93734741 C-59.21424547 67.43239852 -59.23456385 65.92749143 -59.26087952 64.42269897 C-59.57868624 45.75311163 -56.71127103 29.43126469 -43.24549866 15.45101929 C-42.51588928 14.73043335 -41.78627991 14.00984741 -41.03456116 13.26742554 C-40.46995178 12.6809021 -39.90534241 12.09437866 -39.32362366 11.49008179 C-28.73848597 1.34384005 -13.87255848 -0.03263356 0 0 Z " fill="#FAF3E6" transform="translate(299.03456115722656,143.73257446289063)"/>
<path d="M0 0 C1.42752222 -0.00374019 2.85504239 -0.00834318 4.28255934 -0.01373065 C8.1918951 -0.02593093 12.1011451 -0.02570368 16.01049554 -0.02334189 C20.23223517 -0.02293296 24.45394757 -0.03398029 28.67567444 -0.04345703 C36.94274339 -0.06005272 45.20978382 -0.06556597 53.47686804 -0.06668179 C60.20042792 -0.06763313 66.92397841 -0.07174776 73.64753532 -0.07808304 C92.72641231 -0.09569313 111.80526683 -0.10492251 130.884152 -0.10342209 C131.91217539 -0.10334218 132.94019878 -0.10326227 133.99937439 -0.10317993 C135.02865905 -0.10309817 136.0579437 -0.10301641 137.11841881 -0.10293217 C153.78822059 -0.10211979 170.45793191 -0.12124596 187.12770755 -0.14945666 C204.26015769 -0.17822057 221.39256377 -0.19199497 238.52503866 -0.19026911 C248.13707292 -0.18960632 257.7490124 -0.19504955 267.36102486 -0.21662521 C275.54737239 -0.23488341 283.73358218 -0.23914654 291.91994131 -0.22560637 C296.09197559 -0.21909947 300.26374599 -0.21887634 304.43575478 -0.23631287 C308.26490603 -0.25215089 312.09358653 -0.24907209 315.92272704 -0.2317446 C317.94331407 -0.22726934 319.96391633 -0.2422475 321.98444515 -0.25822389 C335.02482313 -0.16100176 347.28461375 2.42724542 357.96543884 10.26742554 C358.67184509 10.78047241 359.37825134 11.29351929 360.10606384 11.82211304 C368.68811052 18.66809684 373.48934459 27.7278633 375.96543884 38.26742554 C376.14438375 39.01383993 376.32332867 39.76025433 376.50769615 40.52928734 C377.93971657 47.02253251 378.27037113 53.23232455 378.2842865 59.86752319 C378.29433212 60.9808905 378.30437775 62.09425781 378.31472778 63.24136353 C378.34539388 66.88806688 378.36254875 70.53469738 378.37950134 74.18148804 C378.39822631 76.72311014 378.41780071 79.26472612 378.43818665 81.80633545 C378.48415348 87.7912766 378.52161162 93.7762114 378.55485952 99.76123178 C378.59322724 106.58122197 378.64259843 113.40111906 378.69284368 120.22103047 C378.79585727 134.23642624 378.88521596 148.2518821 378.96543884 162.26742554 C379.62463821 161.27842255 380.28383759 160.28941956 380.9630127 159.27044678 C385.42802793 152.57195711 389.8939994 145.87412614 394.36778259 139.18148804 C406.20763056 121.50021045 406.20763056 121.50021045 417.83409119 103.67855835 C423.182046 95.35481086 428.60815397 87.08162734 434.04356384 78.81478882 C434.65388458 77.88649765 434.65388458 77.88649765 435.27653503 76.93945312 C436.0789713 75.71899293 436.88150085 74.49859407 437.68412781 73.27825928 C439.85614894 69.97157541 442.00596498 66.65230084 444.12950134 63.31430054 C448.32923729 56.74949106 452.35824677 50.65460107 458.96543884 46.26742554 C459.56872009 45.83945679 460.17200134 45.41148804 460.79356384 44.97055054 C468.40782318 40.59385029 478.50937629 41.15954568 486.96543884 42.26742554 C491.48491691 43.51028201 495.08107977 45.72461943 498.96543884 48.26742554 C500.67360065 49.33619062 502.38339543 50.40234791 504.09434509 51.46664429 C508.8818695 54.46410466 513.62851158 57.52081394 518.36729431 60.59457397 C520.64847388 62.06334323 522.94241417 63.50570025 525.25059509 64.93148804 C536.59178799 71.95690201 543.66183517 78.35661451 547.96543884 91.26742554 C549.41591279 111.84391639 537.76627143 127.02372617 526.62385559 143.26379395 C523.4063885 147.95448617 520.21455296 152.66258839 517.02012634 157.36898804 C516.35941635 158.34124832 515.69870636 159.31350861 515.01797485 160.31523132 C507.70990015 171.08550635 500.54898366 181.95172968 493.40293884 192.82992554 C492.81122894 193.7306076 492.21951904 194.63128967 491.60987854 195.55926514 C491.03281158 196.43773102 490.45574463 197.3161969 489.8611908 198.22128296 C488.72798951 199.94631114 487.59477046 201.67132764 486.46153259 203.39633179 C485.91604263 204.22687576 485.37055267 205.05741974 484.80853271 205.91313171 C479.65529526 213.75277856 474.45370923 221.55979073 469.2403717 229.35955811 C467.4955199 231.97063359 465.75382186 234.58380652 464.01231384 237.19711304 C462.91335551 238.84555054 461.81439718 240.49398804 460.71543884 242.14242554 C460.16887634 242.96226929 459.62231384 243.78211304 459.05918884 244.62680054 C453.19900004 253.41708374 447.33881124 262.20736694 441.47862244 270.99765015 C440.94059998 271.80468384 440.40257751 272.61171753 439.84825134 273.44320679 C433.22064718 283.38461304 426.59304301 293.32601929 419.96543884 303.26742554 C419.52621094 303.9262674 419.08698303 304.58510925 418.63444519 305.26391602 C418.22305298 305.88100433 417.81166077 306.49809265 417.38780212 307.13388062 C416.98726624 307.73468445 416.58673035 308.33548828 416.17405701 308.95449829 C414.97251892 310.75680542 413.77098083 312.55911255 412.56944275 314.36141968 C412.15494873 314.98316071 411.74045471 315.60490173 411.31340027 316.2454834 C410.35567729 317.68206787 409.39795431 319.11865234 408.44023132 320.55523682 C407.90504883 321.35801056 407.36986633 322.1607843 406.81846619 322.98788452 C406.26661652 323.81565903 405.71476685 324.64343353 405.14619446 325.49629211 C404.58381073 326.33986771 404.021427 327.1834433 403.44200134 328.05258179 C383.96543884 357.26742554 383.96543884 357.26742554 381.82894897 359.93466187 C379.37525212 364.32293516 379.41129091 367.67388154 379.46714783 372.61483765 C379.45886963 373.99915482 379.45886963 373.99915482 379.45042419 375.41143799 C379.44112033 377.41004755 379.44098566 379.40871639 379.44901848 381.40733147 C379.46168786 384.58369657 379.45031822 387.75919743 379.4329834 390.93553162 C379.40627764 396.54727271 379.40068699 402.15880161 379.40208435 407.77059937 C379.40431086 416.71926985 379.3898389 425.66767478 379.34649849 434.61624336 C379.33676115 437.72187232 379.34532951 440.82707412 379.35519409 443.93269348 C379.33446851 462.86039094 377.4030286 480.85206966 364.00059509 495.40023804 C350.62053802 508.12701927 334.10647752 510.74067465 316.25836182 510.64837646 C314.83105892 510.65184259 313.4037587 510.6566135 311.97646397 510.6625582 C308.09571411 510.67496648 304.21518839 510.66894486 300.3344382 510.65959954 C296.13332926 510.65276739 291.93225689 510.66331065 287.7311554 510.67153931 C279.51836662 510.68483364 271.3056604 510.68201846 263.09286848 510.67330138 C256.41613508 510.66650963 249.7394247 510.66561455 243.06268883 510.66887283 C242.11026201 510.66933253 241.15783519 510.66979223 240.17654696 510.67026586 C238.24138647 510.67122509 236.30622599 510.67219773 234.37106552 510.67318363 C216.25396432 510.68172457 198.13690876 510.67192306 180.01981505 510.65578254 C164.48856461 510.64237405 148.95738143 510.64471434 133.4261322 510.65853882 C115.36654259 510.67460638 97.30699289 510.68090753 79.24739712 510.67170203 C77.32051194 510.67074643 75.39362676 510.66980331 73.46674156 510.66887283 C72.04483099 510.66817859 72.04483099 510.66817859 70.59419495 510.66747033 C63.92716991 510.66488446 57.26017029 510.66924261 50.59314919 510.67631149 C42.46613094 510.68473948 34.33919959 510.6824188 26.21219126 510.66646926 C22.06901244 510.65860502 17.92597831 510.65546341 13.78280067 510.66541672 C9.9849981 510.67440216 6.1874734 510.669368 2.38969579 510.65348406 C0.37639297 510.64858297 -1.63692937 510.658298 -3.65021151 510.66865575 C-19.72633035 510.56514686 -33.33507086 505.46906519 -45.03456116 494.26742554 C-55.58484541 482.42376143 -59.21616412 469.34371993 -59.13221741 453.83773804 C-59.13080246 452.8474057 -59.12938751 451.85707336 -59.12792969 450.83673096 C-59.12235367 447.6885978 -59.10980557 444.54053702 -59.09706116 441.39242554 C-59.09204306 439.25180157 -59.08748069 437.11117648 -59.08338928 434.97055054 C-59.0723921 429.73615104 -59.05567791 424.50179346 -59.03456116 419.26742554 C-60.33651428 419.31383179 -61.63846741 419.36023804 -62.97987366 419.40805054 C-64.70641312 419.445584 -66.43297752 419.48198247 -68.15956116 419.51742554 C-69.01549866 419.55094116 -69.87143616 419.58445679 -70.75331116 419.61898804 C-76.38692512 419.70565902 -79.57664238 419.05769969 -84.03456116 415.26742554 C-86.62830085 412.17167172 -87.05492768 410.83768824 -86.90956116 406.76742554 C-85.6661855 401.79392289 -84.32201492 399.12572805 -80.03456116 396.26742554 C-73.10456116 396.26742554 -66.17456116 396.26742554 -59.03456116 396.26742554 C-59.03456116 378.11742554 -59.03456116 359.96742554 -59.03456116 341.26742554 C-66.29456116 341.26742554 -73.55456116 341.26742554 -81.03456116 341.26742554 C-88.0027796 333.13783735 -88.0027796 333.13783735 -87.63221741 328.26351929 C-86.50719826 324.50610241 -84.00069074 321.75724234 -81.03456116 319.26742554 C-74.07036702 316.94602749 -66.37546634 318.26742554 -59.03456116 318.26742554 C-59.03456116 299.78742554 -59.03456116 281.30742554 -59.03456116 262.26742554 C-66.29456116 262.26742554 -73.55456116 262.26742554 -81.03456116 262.26742554 C-86.92817818 256.37380852 -86.92817818 256.37380852 -87.34706116 252.01742554 C-86.97784269 247.58680388 -85.86617268 245.64962819 -83.03456116 242.26742554 C-79.03456116 240.26742554 -79.03456116 240.26742554 -59.03456116 239.26742554 C-59.03456116 221.11742554 -59.03456116 202.96742554 -59.03456116 184.26742554 C-66.29456116 184.26742554 -73.55456116 184.26742554 -81.03456116 184.26742554 C-87.01130534 179.48603019 -87.01130534 179.48603019 -88.03456116 174.26742554 C-87.95534398 169.75204626 -87.54168934 167.86557673 -84.59706116 164.39242554 C-76.35005701 157.55344649 -75.09358148 161.26742554 -59.03456116 161.26742554 C-59.03456116 142.45742554 -59.03456116 123.64742554 -59.03456116 104.26742554 C-66.29456116 104.26742554 -73.55456116 104.26742554 -81.03456116 104.26742554 C-86.91769178 99.56092104 -86.91769178 99.56092104 -88.03456116 96.26742554 C-88.22206116 94.08383179 -88.22206116 94.08383179 -88.03456116 91.82992554 C-87.99331116 91.0887146 -87.95206116 90.34750366 -87.90956116 89.58383179 C-86.54630217 85.97484706 -84.43872327 83.91464068 -81.03456116 82.26742554 C-77.2186175 81.67752297 -73.508898 81.79350173 -69.65956116 81.95492554 C-68.63733459 81.97748413 -67.61510803 82.00004272 -66.56190491 82.02328491 C-64.05126535 82.08194471 -61.54368736 82.16396626 -59.03456116 82.26742554 C-59.05027161 81.341073 -59.06598206 80.41472046 -59.08216858 79.46029663 C-59.13395175 75.95258753 -59.17122346 72.44529694 -59.19935608 68.93734741 C-59.21424547 67.43239852 -59.23456385 65.92749143 -59.26087952 64.42269897 C-59.57868624 45.75311163 -56.71127103 29.43126469 -43.24549866 15.45101929 C-42.51588928 14.73043335 -41.78627991 14.00984741 -41.03456116 13.26742554 C-40.46995178 12.6809021 -39.90534241 12.09437866 -39.32362366 11.49008179 C-28.73848597 1.34384005 -13.87255848 -0.03263356 0 0 Z M36.96543884 19.26742554 C36.96543884 175.02742554 36.96543884 330.78742554 36.96543884 491.26742554 C109.60668884 491.39117554 109.60668884 491.39117554 183.71543884 491.51742554 C199.00726501 491.55384155 214.29909119 491.59025757 230.05430603 491.6277771 C243.76026736 491.64115473 243.76026736 491.64115473 257.4662323 491.64920044 C263.57160107 491.65292743 269.67682309 491.66758667 275.78215027 491.68972778 C282.82833586 491.71524303 289.87438091 491.72675676 296.92061301 491.72120534 C300.52281087 491.71880226 304.12469489 491.72253272 307.72683477 491.74428606 C311.59235477 491.76748712 315.457462 491.75936446 319.32304382 491.7484436 C320.43559666 491.76009426 321.54814949 491.77174492 322.69441605 491.78374863 C332.09040172 491.71261002 341.88325301 489.78450017 349.43809509 483.81820679 C357.79689812 475.33113568 360.1003173 465.77618389 360.07896423 454.13876343 C360.07918327 453.1277356 360.07918327 453.1277356 360.07940674 452.09628296 C360.07871654 449.89418182 360.07096648 447.69216794 360.06309509 445.49008179 C360.06122773 443.95308987 360.05980533 442.41609735 360.05880737 440.87910461 C360.05500722 436.85305103 360.04519854 432.82703408 360.03410339 428.80099487 C360.02383525 424.68499243 360.01929822 420.568984 360.01426697 416.45297241 C360.00357381 408.39110673 359.98652775 400.3292707 359.96543884 392.26742554 C357.71364647 394.46143493 356.02217206 396.5744022 354.36387634 399.25180054 C353.87274353 400.02265991 353.38161072 400.79351929 352.87559509 401.58773804 C351.86588169 403.18580861 350.86557605 404.78986901 349.87559509 406.40023804 C343.16732829 416.83531973 333.64343586 421.79767127 322.84043884 427.39242554 C320.32751304 428.71190386 317.81825044 430.03827316 315.30918884 431.36508179 C314.68345978 431.69509689 314.05773071 432.025112 313.41304016 432.36512756 C307.65821623 435.40872382 301.9913675 438.59776181 296.34043884 441.82992554 C285.95834492 447.75249224 275.46323921 453.44862049 264.91856384 459.07601929 C261.32593841 460.99333599 257.75044474 462.93361253 254.19981384 464.92758179 C253.512099 465.30938599 252.82438416 465.69119019 252.11582947 466.08456421 C250.37886025 467.05145625 248.64835819 468.02994278 246.91856384 469.00961304 C243.63667762 470.40745347 241.49582873 470.67287648 237.96543884 470.26742554 C235.09043884 468.26742554 235.09043884 468.26742554 232.96543884 465.26742554 C232.15655072 457.94298799 234.25048439 451.05890174 235.98487854 443.99298096 C239.40320535 429.98408413 242.30037953 415.90929395 244.77793884 401.70492554 C244.92535522 400.86237213 245.07277161 400.01981873 245.22465515 399.1517334 C247.24384314 387.5081045 248.95307834 375.87870689 249.90415955 364.09140015 C250.43157994 358.30262768 251.5131729 354.03561697 254.96543884 349.26742554 C255.54422791 348.46417847 256.12301697 347.6609314 256.71934509 346.83334351 C258.08158076 344.96194544 259.44991755 343.09497793 260.823349 341.23178101 C264.04570202 336.77249101 267.0390957 332.17236481 270.03236389 327.55728149 C272.05829539 324.43432676 274.09479321 321.31825977 276.12950134 318.20101929 C276.57675064 317.51527832 277.02399994 316.82953735 277.48480225 316.12301636 C283.33070559 307.16510092 289.22004441 298.23575335 295.10768127 289.30523682 C296.98486024 286.45777085 298.86129365 283.60981467 300.73765564 280.7618103 C305.78317782 273.10618623 310.83181444 265.45302673 315.92637634 257.82992554 C319.96763102 251.78247657 323.97238772 245.71141933 327.96934509 239.63461304 C328.58393082 238.70045563 329.19851654 237.76629822 329.83172607 236.80383301 C332.3706599 232.94417926 334.90924048 229.08429632 337.44566345 225.22299194 C339.32713718 222.35926232 341.21060204 219.49685026 343.09434509 216.63461304 C343.65086258 215.78631927 344.20738007 214.93802551 344.78076172 214.06402588 C345.32840683 213.23251007 345.87605194 212.40099426 346.44029236 211.54428101 C346.9601707 210.74405518 347.48004904 209.94382935 348.01568127 209.11935425 C349.96543884 206.26742554 349.96543884 206.26742554 352.24140549 203.41125679 C358.53300579 195.26517659 360.26206175 189.45491153 360.01890564 178.96273804 C360.01964341 177.58290888 360.02433581 176.20307717 360.03262329 174.82327271 C360.04363918 171.11565242 359.99938617 167.41062566 359.94384742 163.70348358 C359.89453527 159.79927258 359.89558401 155.89504351 359.89044189 151.99057007 C359.87484953 145.43722587 359.82629025 138.88483554 359.7542572 132.33187866 C359.65318999 123.12842949 359.61551488 113.92549657 359.58880365 104.72157669 C359.56767246 98.30256745 359.53073557 91.88363316 359.49124551 85.46471405 C359.48187629 83.9202681 359.47299567 82.3758191 359.46461082 80.83136749 C359.44030127 76.42374675 359.40599629 72.01642709 359.35629463 67.60901642 C359.33618351 65.65672545 359.32501649 63.70434853 359.31425476 61.75198364 C359.14932561 49.25447579 358.91101279 37.93912767 350.24668884 28.36898804 C341.78000977 20.1452055 331.79518812 18.66785773 320.40533447 18.78640747 C319.19012115 18.7829834 317.97490784 18.77955933 316.72286987 18.77603149 C313.37389276 18.77059649 310.02586667 18.78301066 306.67700495 18.80313462 C303.00128533 18.82069998 299.32558668 18.81474972 295.64983654 18.81186295 C288.52638188 18.80974301 281.40313018 18.82814653 274.27972756 18.85386826 C266.03379101 18.88274782 257.78797515 18.88585158 249.54197693 18.88900757 C227.78726556 18.90998102 206.03259912 18.96582579 184.27793884 19.01742554 C135.66481384 19.09992554 87.05168884 19.18242554 36.96543884 19.26742554 Z " fill="#313E44" transform="translate(299.03456115722656,143.73257446289063)"/>
<path d="M0 0 C0 155.76 0 311.52 0 472 C-35.93203883 472 -35.93203883 472 -47 462 C-55.32325823 452.5353667 -57.17860951 440.52869632 -57.09765625 428.3203125 C-57.0962413 427.50754852 -57.09482635 426.69478455 -57.09336853 425.85739136 C-57.08780335 423.27988899 -57.0752574 420.7024758 -57.0625 418.125 C-57.0574805 416.36979293 -57.05291838 414.61458448 -57.04882812 412.859375 C-57.03784534 408.57288268 -57.02060492 404.28645643 -57 400 C-56.39003174 399.99589111 -55.78006348 399.99178223 -55.15161133 399.98754883 C-52.37094208 399.95452425 -49.59243843 399.88387432 -46.8125 399.8125 C-45.85279297 399.80669922 -44.89308594 399.80089844 -43.90429688 399.79492188 C-39.23892558 399.6496335 -36.75675628 399.57071632 -32.94921875 396.69921875 C-29.77885914 392.61602111 -29.77885914 392.61602111 -29.171875 387.7109375 C-29.36265625 386.94007813 -29.5534375 386.16921875 -29.75 385.375 C-30.02070313 384.21097656 -30.02070313 384.21097656 -30.296875 383.0234375 C-30.90228131 380.807165 -30.90228131 380.807165 -33 379 C-40.78804178 377.05298955 -48.98228617 377.40088569 -57 377 C-57 358.85 -57 340.7 -57 322 C-50.07 321.67 -43.14 321.34 -36 321 C-30.73667257 316.36850725 -30.73667257 316.36850725 -29.8125 310.625 C-29.98486499 307.29261022 -30.11896154 305.67305465 -32 303 C-39.02596938 298.31602042 -47.77276912 299.51420193 -56 299 C-56 280.52 -56 262.04 -56 243 C-49.73 242.67 -43.46 242.34 -37 242 C-31.3595281 238.85209784 -31.3595281 238.85209784 -29 234 C-29.15471434 230.18629156 -29.79032469 226.62902593 -31 223 C-38.35683917 219.74135072 -38.35683917 219.74135072 -57 220 C-57 201.85 -57 183.7 -57 165 C-50.07 164.67 -43.14 164.34 -36 164 C-30.57901508 159.77576937 -30.57901508 159.77576937 -29.625 153.6875 C-29.73622195 149.17954209 -29.73622195 149.17954209 -35 144 C-42.26 143.67 -49.52 143.34 -57 143 C-57 123.86 -57 104.72 -57 85 C-46.605 84.505 -46.605 84.505 -36 84 C-31.15785521 80.65078986 -31.15785521 80.65078986 -29.7265625 76.01171875 C-29.67628906 74.86123047 -29.67628906 74.86123047 -29.625 73.6875 C-29.57601563 72.92824219 -29.52703125 72.16898437 -29.4765625 71.38671875 C-30.322742 67.52839282 -31.7851842 66.27995525 -35 64 C-38.76913259 63.25636636 -42.47899967 63.2095739 -46.3125 63.1875 C-47.33923828 63.16236328 -48.36597656 63.13722656 -49.42382812 63.11132812 C-51.949604 63.05258915 -54.47365228 63.01621288 -57 63 C-57.90719305 22.35775145 -57.90719305 22.35775145 -46.9921875 10.890625 C-32.89632663 -2.5667474 -20.23811697 0 0 0 Z " fill="#FAF4E8" transform="translate(317,163)"/>
<path d="M0 0 C3.4627157 1.28973946 6.46317922 2.79389238 9.5625 4.80078125 C10.43124756 5.35934814 11.29999512 5.91791504 12.19506836 6.4934082 C13.58350952 7.39385864 13.58350952 7.39385864 15 8.3125 C16.979792 9.58438736 18.96027831 10.85519454 20.94140625 12.125 C21.9483252 12.77082031 22.95524414 13.41664063 23.99267578 14.08203125 C36.85227815 22.28344676 49.8899081 30.20644306 63 38 C62.36066562 42.0243326 60.32213453 44.84628207 58.09765625 48.20703125 C57.70106308 48.80948166 57.30446991 49.41193207 56.89585876 50.03263855 C55.62335886 51.96281198 54.34306255 53.88766876 53.0625 55.8125 C52.23581531 57.06411456 51.40963886 58.31606497 50.58398438 59.56835938 C47.2737464 64.58310004 43.94558912 69.58584402 40.6081543 74.58251953 C35.94519127 81.56374914 31.30774231 88.56080708 26.69921875 95.578125 C11.17881309 119.20609642 -4.51033574 142.71178242 -20.35559082 166.12306213 C-25.27218973 173.39213441 -30.14355131 180.69065598 -35 188 C-45.84323872 204.30644605 -56.69435825 220.60655536 -67.6875 236.8125 C-68.09104706 237.40799652 -68.49459412 238.00349304 -68.91036987 238.61703491 C-75.95641486 249.00993768 -75.95641486 249.00993768 -79 253 C-83.2044215 252.39146531 -86.33651643 249.98549441 -89.765625 247.65234375 C-90.42830887 247.20837753 -91.09099274 246.76441132 -91.77375793 246.30699158 C-93.93643071 244.85623707 -96.09343477 243.39731504 -98.25 241.9375 C-100.48266989 240.43231757 -102.71618379 238.92839441 -104.94984436 237.42468262 C-106.45222978 236.41311142 -107.95413059 235.40082011 -109.45555115 234.38781738 C-114.11309973 231.25030678 -118.8003202 228.16491313 -123.51953125 225.12109375 C-124.64506155 224.39037067 -125.77039405 223.6593428 -126.89550781 222.92797852 C-128.9700268 221.58318741 -131.05121693 220.24861911 -133.13964844 218.92553711 C-134.05391602 218.32878174 -134.96818359 217.73202637 -135.91015625 217.1171875 C-137.10330444 216.35317627 -137.10330444 216.35317627 -138.32055664 215.57373047 C-138.87477295 215.05439941 -139.42898926 214.53506836 -140 214 C-140 209.96799192 -139.87526739 209.31229057 -137.7980957 206.18920898 C-137.06592834 205.07400879 -137.06592834 205.07400879 -136.31896973 203.9362793 C-135.50559143 202.72838745 -135.50559143 202.72838745 -134.67578125 201.49609375 C-134.11088989 200.64192871 -133.54599854 199.78776367 -132.96398926 198.90771484 C-131.08913666 196.07823255 -129.20102737 193.25786984 -127.3125 190.4375 C-125.9982973 188.46079635 -124.68474839 186.48365789 -123.37182617 184.50610352 C-111.85523313 167.18451763 -100.21576683 149.94466052 -88.5625 132.71484375 C-81.0003411 121.53363833 -73.50906274 110.3064474 -66.03759766 99.06445312 C-62.53022661 93.78952844 -59.01459082 88.52011575 -55.5 83.25 C-54.00777418 81.01174428 -52.51558403 78.77346482 -51.0234375 76.53515625 C-50.22233312 75.3334945 -49.42122627 74.1318344 -48.62011719 72.93017578 C-48.20016479 72.30024719 -47.7802124 71.6703186 -47.34753418 71.02130127 C-45.89737956 68.84606934 -44.44722493 66.6708374 -42.99707031 64.49560547 C-42.47398285 63.71097427 -41.95089539 62.92634308 -41.41195679 62.11793518 C-39.76926676 59.65390015 -38.12657674 57.18986511 -36.48388672 54.72583008 C-35.93021423 53.89532135 -35.37654175 53.06481262 -34.80609131 52.20913696 C-29.87072754 44.80609131 -24.93536377 37.40304565 -20 30 C-19.48155518 29.22233276 -18.96311035 28.44466553 -18.42895508 27.64343262 C-16.4376119 24.65641785 -14.44626872 21.66940308 -12.45492554 18.68238831 C-11.99397491 17.99096237 -11.53302429 17.29953644 -11.05810547 16.5871582 C-9.30192057 13.95288086 -7.54573568 11.31860352 -5.78955078 8.68432617 C-5.39403015 8.09104523 -4.99850952 7.49776428 -4.59100342 6.88650513 C-2.29550171 3.44325256 -2.29550171 3.44325256 0 0 Z " fill="#F06E3C" transform="translate(714,285)"/>
<path d="M0 0 C3.68241988 1.35657247 6.82963215 3.02726185 10.125 5.15234375 C11.07890625 5.76400391 12.0328125 6.37566406 13.015625 7.00585938 C14.00046875 7.64330078 14.9853125 8.28074219 16 8.9375 C17.9580015 10.19713055 19.91632409 11.45626214 21.875 12.71484375 C22.73867188 13.27292725 23.60234375 13.83101074 24.4921875 14.40600586 C26.97027421 15.98110595 29.47555917 17.50054775 32 19 C30.51666186 23.1950733 28.36551836 26.72071348 25.88671875 30.3828125 C25.27758385 31.29432068 25.27758385 31.29432068 24.65614319 32.22424316 C23.33781342 34.19425736 22.01282189 36.15968448 20.6875 38.125 C19.77540547 39.48465492 18.86362327 40.84451942 17.95214844 42.20458984 C12.45055652 50.40424388 6.91677328 58.58236561 1.3112793 66.71142578 C-1.41907197 70.67141863 -4.10955047 74.65507381 -6.7734375 78.66015625 C-10.86037217 84.80410397 -15.00024759 90.91079246 -19.15045166 97.01205444 C-27.18497962 108.8179706 -27.18497962 108.8179706 -35.125 120.6875 C-41.20597177 129.85666472 -47.42072223 138.93560094 -53.61468506 148.02861023 C-56.21814851 151.85079918 -58.81880688 155.67488375 -61.41796875 159.5 C-68.32350659 169.66267697 -75.23587442 179.8204599 -82.1796875 189.95703125 C-86.37996688 196.08943915 -90.56573588 202.23165666 -94.75 208.375 C-100.13158496 216.27463097 -105.53841053 224.1554406 -111 232 C-116.74367147 229.91365439 -121.55933279 226.59022699 -126.63110352 223.23291016 C-128.31664944 222.12226584 -130.01430555 221.0319709 -131.71289062 219.94140625 C-132.77314453 219.24144531 -133.83339844 218.54148437 -134.92578125 217.8203125 C-135.89942627 217.18367676 -136.87307129 216.54704102 -137.8762207 215.89111328 C-138.57706787 215.2670459 -139.27791504 214.64297852 -140 214 C-140 209.96799192 -139.87526739 209.31229057 -137.7980957 206.18920898 C-137.06592834 205.07400879 -137.06592834 205.07400879 -136.31896973 203.9362793 C-135.50559143 202.72838745 -135.50559143 202.72838745 -134.67578125 201.49609375 C-134.11088989 200.64192871 -133.54599854 199.78776367 -132.96398926 198.90771484 C-131.08913666 196.07823255 -129.20102737 193.25786984 -127.3125 190.4375 C-125.9982973 188.46079635 -124.68474839 186.48365789 -123.37182617 184.50610352 C-111.85523313 167.18451763 -100.21576683 149.94466052 -88.5625 132.71484375 C-81.0003411 121.53363833 -73.50906274 110.3064474 -66.03759766 99.06445312 C-62.53022661 93.78952844 -59.01459082 88.52011575 -55.5 83.25 C-54.00777418 81.01174428 -52.51558403 78.77346482 -51.0234375 76.53515625 C-50.22233312 75.3334945 -49.42122627 74.1318344 -48.62011719 72.93017578 C-48.20016479 72.30024719 -47.7802124 71.6703186 -47.34753418 71.02130127 C-45.89737956 68.84606934 -44.44722493 66.6708374 -42.99707031 64.49560547 C-42.47398285 63.71097427 -41.95089539 62.92634308 -41.41195679 62.11793518 C-39.76926676 59.65390015 -38.12657674 57.18986511 -36.48388672 54.72583008 C-35.93021423 53.89532135 -35.37654175 53.06481262 -34.80609131 52.20913696 C-29.87072754 44.80609131 -24.93536377 37.40304565 -20 30 C-19.48155518 29.22233276 -18.96311035 28.44466553 -18.42895508 27.64343262 C-16.4376119 24.65641785 -14.44626872 21.66940308 -12.45492554 18.68238831 C-11.99397491 17.99096237 -11.53302429 17.29953644 -11.05810547 16.5871582 C-9.30192057 13.95288086 -7.54573568 11.31860352 -5.78955078 8.68432617 C-5.39403015 8.09104523 -4.99850952 7.49776428 -4.59100342 6.88650513 C-2.29550171 3.44325256 -2.29550171 3.44325256 0 0 Z " fill="#F88C5B" transform="translate(714,285)"/>
<path d="M0 0 C0.69480469 0.59683594 1.38960938 1.19367187 2.10546875 1.80859375 C2.74871094 2.35386719 3.39195312 2.89914062 4.0546875 3.4609375 C13.48493856 12.15476982 19.02600336 24.60932032 19.671875 37.359375 C19.6993536 39.61311412 19.69743012 41.86737968 19.66796875 44.12109375 C19.65773682 45.30372803 19.64750488 46.4863623 19.63696289 47.70483398 C19.25187903 63.59799764 14.49382269 75.93996086 2.85546875 87.12109375 C-1.92065358 91.16242803 -7.08638754 93.57957136 -12.89453125 95.80859375 C-13.96703125 96.22109375 -15.03953125 96.63359375 -16.14453125 97.05859375 C-31.17465366 101.15771804 -46.74510658 99.5757784 -60.58203125 92.62109375 C-72.11769685 85.65736167 -81.37764952 74.98451684 -84.89453125 61.80859375 C-89.12247525 44.5757081 -86.75823072 28.00182336 -77.7890625 12.70703125 C-70.46729425 1.50548064 -60.57590541 -5.70683348 -47.58203125 -9.19140625 C-30.88530008 -12.27138579 -13.78318227 -10.73564448 0 0 Z " fill="#313E44" transform="translate(501.89453125,706.19140625)"/>
<path d="M0 0 C14.8200618 -0.96709111 14.8200618 -0.96709111 19.76904297 2.13989258 C21.87927331 4.79688495 23.48506775 7.54477719 25.15576172 10.49926758 C26.49054752 12.46357076 27.87125334 14.39005412 29.2578125 16.31811523 C30.81743338 18.4877834 32.34895408 20.67544682 33.87841797 22.86645508 C37.75785742 28.385706 41.77558573 33.80126789 45.8203125 39.20019531 C51.48529911 46.81353451 56.80701976 54.66245777 62.15576172 62.49926758 C62.14576897 61.42264862 62.14576897 61.42264862 62.13557434 60.32427979 C62.07543268 53.55615053 62.02977178 46.78806128 62.0003252 40.01973343 C61.98467731 36.54013915 61.96345565 33.0607659 61.92944336 29.58129883 C61.89057518 25.5799753 61.87604533 21.57888352 61.86279297 17.57739258 C61.84730911 16.32935852 61.83182526 15.08132446 61.81587219 13.79547119 C61.8156456 12.6345697 61.81541901 11.47366821 61.81518555 10.27758789 C61.80519279 8.74536591 61.80519279 8.74536591 61.79499817 7.18218994 C62.21030985 4.09360462 63.01070385 2.72734312 65.15576172 0.49926758 C67.20874023 0.01342773 67.20874023 0.01342773 69.53466797 0.03833008 C70.7924707 0.04413086 70.7924707 0.04413086 72.07568359 0.05004883 C73.38375977 0.08678711 73.38375977 0.08678711 74.71826172 0.12426758 C76.03213867 0.12620117 76.03213867 0.12620117 77.37255859 0.12817383 C83.87476787 0.21827373 83.87476787 0.21827373 86.15576172 2.49926758 C86.40465069 4.33554173 86.40465069 4.33554173 86.40299988 6.60536194 C86.40719437 7.46490982 86.41138885 8.3244577 86.41571045 9.21005249 C86.41009094 10.15506622 86.40447144 11.10007996 86.39868164 12.07373047 C86.40057999 13.06728043 86.40247833 14.06083038 86.4044342 15.08448792 C86.4081498 18.38037924 86.39742731 21.67605197 86.38623047 24.97192383 C86.38503909 27.25353469 86.38458542 29.53514604 86.38484192 31.8167572 C86.38327574 36.60264142 86.37497526 41.38845097 86.36157227 46.17431641 C86.34457265 52.324003 86.34075811 58.47360752 86.34151745 64.62331486 C86.34124618 69.33545218 86.33577202 74.04757137 86.32851601 78.75970268 C86.32532305 81.02802836 86.32336048 83.29635611 86.3226223 85.56468391 C86.3204659 88.72789164 86.31173718 91.89101044 86.30102539 95.05419922 C86.30147858 96.00123718 86.30193176 96.94827515 86.30239868 97.92401123 C86.27023546 104.38479384 86.27023546 104.38479384 85.15576172 105.49926758 C81.96144982 105.94468956 78.75127112 106.01070942 75.53076172 106.12426758 C74.64001953 106.19516602 73.74927734 106.26606445 72.83154297 106.33911133 C68.88327673 106.449593 66.23682379 106.43570018 63.17211914 103.78100586 C61.32382318 101.43728772 59.73127866 99.03369002 58.15576172 96.49926758 C57.07821988 94.94666303 55.99623884 93.39712922 54.90966797 91.85083008 C53.84339507 90.27698038 52.77963839 88.70142335 51.71826172 87.12426758 C47.70306294 81.20644379 43.6380574 75.34874325 39.39794922 69.58911133 C36.16525283 65.13429801 33.00387498 60.63040481 29.84326172 56.12426758 C29.23168213 55.25487549 28.62010254 54.3854834 27.98999023 53.48974609 C27.1187854 52.24535767 27.1187854 52.24535767 26.22998047 50.97583008 C25.45013794 49.86328857 25.45013794 49.86328857 24.65454102 48.72827148 C23.06639655 46.36636254 21.61219379 43.94406339 20.15576172 41.49926758 C20.16020294 42.27156708 20.16464417 43.04386658 20.16921997 43.83956909 C20.20925176 51.10871395 20.23972315 58.37780556 20.25938606 65.64703178 C20.2698347 69.38444588 20.28401342 73.12176908 20.30664062 76.85913086 C20.32833076 80.46417258 20.34032221 84.06912674 20.3455162 87.67422867 C20.34921888 89.05138656 20.35644906 90.42853952 20.36722183 91.80566025 C20.38168507 93.73066303 20.3825782 95.65575345 20.3828125 97.58081055 C20.38725372 98.67779266 20.39169495 99.77477478 20.39627075 100.90499878 C20.15576172 103.49926758 20.15576172 103.49926758 18.15576172 105.49926758 C16.21630859 105.75805664 16.21630859 105.75805664 13.87451172 105.76489258 C13.03275391 105.7674707 12.19099609 105.77004883 11.32373047 105.77270508 C10.44330078 105.7649707 9.56287109 105.75723633 8.65576172 105.74926758 C7.77533203 105.75700195 6.89490234 105.76473633 5.98779297 105.77270508 C5.14603516 105.77012695 4.30427734 105.76754883 3.43701172 105.76489258 C2.66421875 105.76263672 1.89142578 105.76038086 1.09521484 105.75805664 C-0.84423828 105.49926758 -0.84423828 105.49926758 -2.84423828 103.49926758 C-3.94181434 98.07351939 -3.99247494 92.7239291 -3.98950195 87.21508789 C-3.99286057 86.31180252 -3.99621918 85.40851715 -3.99967957 84.4778595 C-4.00913045 81.51102298 -4.01112916 78.54424318 -4.01220703 75.57739258 C-4.0154217 73.50950091 -4.01878594 71.44160946 -4.02229309 69.37371826 C-4.02826822 65.04984001 -4.03013445 60.7259817 -4.02954102 56.40209961 C-4.02943903 50.85470049 -4.04313607 45.3074283 -4.06031322 39.76005936 C-4.07141021 35.49478564 -4.073461 31.22954296 -4.07293129 26.96425629 C-4.07411316 24.91807362 -4.07854646 22.8718902 -4.08626366 20.82572174 C-4.09602491 17.97234548 -4.09320177 15.1192496 -4.0871582 12.26586914 C-4.09277771 11.4180336 -4.09839722 10.57019806 -4.10418701 9.69667053 C-4.05774297 1.09850204 -4.05774297 1.09850204 0 0 Z " fill="#334045" transform="translate(307.84423828125,698.500732421875)"/>
<path d="M0 0 C0.77279297 0.00410889 1.54558594 0.00821777 2.34179688 0.01245117 C3.18355469 0.01438477 4.0253125 0.01631836 4.89257812 0.01831055 C6.21322266 0.03667969 6.21322266 0.03667969 7.56054688 0.05541992 C8.88119141 0.05638672 8.88119141 0.05638672 10.22851562 0.05737305 C16.77974573 0.10251935 16.77974573 0.10251935 19.06054688 1.24291992 C19.06054688 35.23291992 19.06054688 69.22291992 19.06054688 104.24291992 C-2.93945312 104.24291992 -2.93945312 104.24291992 -7.54492188 100.64916992 C-8.93432617 98.3034668 -8.93432617 98.3034668 -10.12695312 95.74291992 C-11.13614321 93.97138728 -12.14657743 92.20056285 -13.15820312 90.43041992 C-13.62613281 89.54483398 -14.0940625 88.65924805 -14.57617188 87.74682617 C-16.49983714 84.21367593 -18.78379964 81.0057171 -21.12695312 77.74291992 C-29.24409418 66.03335351 -37.05174308 54.10731137 -44.93945312 42.24291992 C-44.93723251 43.00491196 -44.9350119 43.76690399 -44.932724 44.55198669 C-44.91272156 51.71843704 -44.89747924 58.88487394 -44.88764095 66.05134487 C-44.88241304 69.7360649 -44.87531708 73.42076195 -44.86401367 77.10546875 C-44.8531815 80.65862823 -44.84717559 84.21176555 -44.84457588 87.76494026 C-44.84272223 89.12337658 -44.83910274 90.48181164 -44.83372307 91.84023857 C-44.82650838 93.73674216 -44.82604503 95.63326785 -44.82592773 97.52978516 C-44.82370712 98.61122299 -44.82148651 99.69266083 -44.81919861 100.80686951 C-44.93945312 103.24291992 -44.93945312 103.24291992 -45.93945312 104.24291992 C-47.48900871 104.34191516 -49.04298985 104.37371516 -50.59570312 104.37573242 C-52.00529297 104.37766602 -52.00529297 104.37766602 -53.44335938 104.37963867 C-54.92642578 104.37383789 -54.92642578 104.37383789 -56.43945312 104.36791992 C-57.42816406 104.37178711 -58.416875 104.3756543 -59.43554688 104.37963867 C-60.37527344 104.37834961 -61.315 104.37706055 -62.28320312 104.37573242 C-63.15138672 104.37460449 -64.01957031 104.37347656 -64.9140625 104.37231445 C-66.93945312 104.24291992 -66.93945312 104.24291992 -67.93945312 103.24291992 C-68.03481554 100.07679329 -68.06495949 96.93251365 -68.05297852 93.76611328 C-68.05319756 92.27359795 -68.05319756 92.27359795 -68.05342102 90.75093079 C-68.05272144 87.4448533 -68.04492692 84.13883138 -68.03710938 80.83276367 C-68.03524536 78.54732799 -68.03382138 76.26189191 -68.03282166 73.97645569 C-68.0289952 67.94793605 -68.01916382 61.91944033 -68.00811768 55.89093018 C-67.9979063 49.74459151 -67.99332462 43.59824899 -67.98828125 37.4519043 C-67.97754167 25.3822323 -67.96046372 13.3125781 -67.93945312 1.24291992 C-64.71995838 1.08596727 -61.5014535 0.99105933 -58.27929688 0.90698242 C-57.37095093 0.8619458 -56.46260498 0.81690918 -55.5267334 0.77050781 C-48.88604459 0.64050571 -48.88604459 0.64050571 -46.12558651 2.39727116 C-43.76418293 4.70547862 -41.84056988 7.3003659 -40.28710938 10.20776367 C-37.68364621 14.79655249 -34.57346655 18.943915 -31.43945312 23.18041992 C-30.32590675 24.72523069 -29.21519682 26.27209027 -28.10742188 27.82104492 C-25.78999816 31.05777146 -23.46447701 34.28835074 -21.12817383 37.51147461 C-17.193059 42.99843621 -13.37043447 48.54196475 -9.63867188 54.16870117 C-9.1834314 54.85339478 -8.72819092 55.53808838 -8.25915527 56.24353027 C-7.15171665 57.90941464 -6.0454593 59.57608419 -4.93945312 61.24291992 C-4.93136627 60.50820465 -4.92327942 59.77348938 -4.91494751 59.01651001 C-4.8370822 52.10039923 -4.74981618 45.18446446 -4.65192604 38.26861 C-4.60193008 34.71288599 -4.55560068 31.15719216 -4.51757812 27.60131836 C-4.4737298 23.51551353 -4.41406507 19.43007411 -4.35351562 15.34448242 C-4.34196442 14.06425201 -4.33041321 12.78402161 -4.31851196 11.46499634 C-4.29864227 10.28392303 -4.27877258 9.10284973 -4.25830078 7.88598633 C-4.24497711 6.84229889 -4.23165344 5.79861145 -4.21792603 4.72329712 C-3.87397507 1.65970239 -3.17443471 0.39760354 0 0 Z " fill="#313E43" transform="translate(641.939453125,832.757080078125)"/>
<path d="M0 0 C7.88161228 5.57250016 13.15688343 12.74819846 16.875 21.6875 C17.1015625 24.4609375 17.1015625 24.4609375 16.875 26.6875 C14.35895657 29.20354343 8.11703425 28.20984652 4.75 28.3125 C3.19925781 28.41884766 3.19925781 28.41884766 1.6171875 28.52734375 C-5.98546025 28.71159159 -5.98546025 28.71159159 -9.3034668 25.72973633 C-11.14453125 23.30859375 -11.14453125 23.30859375 -12.66333008 20.88452148 C-15.09427623 17.23059057 -17.92412927 15.72083315 -22.125 14.6875 C-28.9299877 13.77855956 -35.18165553 13.51168215 -41.1875 17.1875 C-46.10854244 21.04552396 -49.16098225 25.79544676 -51.125 31.6875 C-51.44254428 36.36987134 -51.44932728 41.05816715 -51.5 45.75 C-51.53738281 47.03583984 -51.57476563 48.32167969 -51.61328125 49.64648438 C-51.70322723 59.4356048 -49.96205422 66.06335773 -43.6875 73.625 C-37.66776584 78.47015188 -32.95426752 79.23513457 -25.3203125 79.03515625 C-19.20611717 78.36991984 -15.65436379 76.18287792 -11.3125 71.9375 C-9.54175513 69.30667905 -8.53343173 67.39522389 -7.48828125 64.484375 C-7.22958252 63.77120117 -6.97088379 63.05802734 -6.7043457 62.32324219 C-6.51316162 61.78344727 -6.32197754 61.24365234 -6.125 60.6875 C-6.72038574 60.69797363 -7.31577148 60.70844727 -7.92919922 60.71923828 C-10.61942343 60.76073949 -13.30958037 60.78680704 -16 60.8125 C-16.93714844 60.82925781 -17.87429688 60.84601563 -18.83984375 60.86328125 C-19.73574219 60.86972656 -20.63164063 60.87617187 -21.5546875 60.8828125 C-22.38210449 60.89328613 -23.20952148 60.90375977 -24.06201172 60.91455078 C-26.125 60.6875 -26.125 60.6875 -28.125 58.6875 C-28.32349071 56.14214859 -28.40351775 53.73033241 -28.375 51.1875 C-28.38660156 50.15302734 -28.38660156 50.15302734 -28.3984375 49.09765625 C-28.37833293 43.94083293 -28.37833293 43.94083293 -26.125 41.6875 C-23.2109375 41.44458008 -23.2109375 41.44458008 -19.5 41.45703125 C-18.50770386 41.45771858 -18.50770386 41.45771858 -17.49536133 41.4584198 C-16.0898256 41.4614447 -14.6842933 41.46933813 -13.27880859 41.48168945 C-11.16100721 41.49969389 -9.04365041 41.50220071 -6.92578125 41.50195312 C13.74278862 41.55528862 13.74278862 41.55528862 15.875 43.6875 C16.12945459 47.01294354 16.06024425 50.35349516 16.0625 53.6875 C16.07474609 54.60917969 16.08699219 55.53085937 16.09960938 56.48046875 C16.12636604 69.12745015 12.92787377 79.73041147 4 89.0625 C-5.76357809 98.08781132 -15.59939211 100.92206479 -28.75 101 C-29.53737549 101.00555908 -30.32475098 101.01111816 -31.13598633 101.0168457 C-43.3830291 100.86738247 -54.2713814 97.15964244 -63.3125 88.68359375 C-75.91538802 74.80412009 -76.74118965 56.10204866 -76.25683594 38.36035156 C-75.6772459 26.60970022 -72.0091496 14.579732 -63.875 5.8125 C-46.46214725 -9.77940083 -19.99883805 -12.04814667 0 0 Z " fill="#313E44" transform="translate(756.125,838.3125)"/>
<path d="M0 0 C0.85529297 -0.05800781 1.71058594 -0.11601563 2.59179688 -0.17578125 C5.15754178 -0.22745388 7.22345207 -0.09620538 9.6875 0.625 C12.22644164 3.43491056 13.23559504 5.20861426 14.6875 8.625 C15.45743286 10.43484375 15.45743286 10.43484375 16.24291992 12.28125 C18.11417434 16.80373485 19.86804739 21.36970573 21.625 25.9375 C22.61537852 28.48542625 23.6086011 31.032233 24.60185242 33.57904053 C25.28145194 35.32235971 25.96008425 37.06605623 26.63777161 38.81011963 C30.38472327 48.44665753 34.24179101 58.03860154 38.10787964 67.62783813 C39.71607486 71.61850562 41.3141376 75.61288754 42.89337158 79.6151123 C43.44224546 81.0042766 43.99398519 82.39231075 44.54803467 83.77941895 C45.40595717 85.93486755 46.24948621 88.09546397 47.08984375 90.2578125 C47.35124649 90.90853729 47.61264923 91.55926208 47.88197327 92.22970581 C49.38991492 96.16283525 50.05111727 99.41714671 49.6875 103.625 C48.6875 104.625 48.6875 104.625 46.55444336 104.73852539 C45.63800049 104.73328857 44.72155762 104.72805176 43.77734375 104.72265625 C42.78798828 104.71943359 41.79863281 104.71621094 40.77929688 104.71289062 C39.73837891 104.70451172 38.69746094 104.69613281 37.625 104.6875 C36.58021484 104.68298828 35.53542969 104.67847656 34.45898438 104.67382812 C31.8684334 104.66199913 29.27799441 104.64551689 26.6875 104.625 C25.70290929 102.2312703 24.72471297 99.8352493 23.75 97.4375 C23.47220703 96.76396484 23.19441406 96.09042969 22.90820312 95.39648438 C22.64072266 94.73583984 22.37324219 94.07519531 22.09765625 93.39453125 C21.85152588 92.79229736 21.60539551 92.19006348 21.35180664 91.56958008 C20.6875 89.625 20.6875 89.625 19.6875 84.625 C6.8175 84.625 -6.0525 84.625 -19.3125 84.625 C-20.3025 87.925 -21.2925 91.225 -22.3125 94.625 C-22.95556662 96.32992751 -23.62962959 98.02475063 -24.375 99.6875 C-24.69597656 100.42097656 -25.01695312 101.15445313 -25.34765625 101.91015625 C-26.3125 103.625 -26.3125 103.625 -28.3125 104.625 C-29.82185472 104.72040346 -31.33529083 104.75573487 -32.84765625 104.7578125 C-33.73904297 104.75910156 -34.63042969 104.76039063 -35.54882812 104.76171875 C-36.9477832 104.75591797 -36.9477832 104.75591797 -38.375 104.75 C-39.31150391 104.75386719 -40.24800781 104.75773438 -41.21289062 104.76171875 C-42.10298828 104.76042969 -42.99308594 104.75914062 -43.91015625 104.7578125 C-45.14004272 104.75612061 -45.14004272 104.75612061 -46.39477539 104.75439453 C-48.3125 104.625 -48.3125 104.625 -49.3125 103.625 C-49.2611169 97.41245678 -47.62235519 91.96435001 -45.28515625 86.27734375 C-44.98056488 85.5112529 -44.67597351 84.74516205 -44.3621521 83.95585632 C-43.37720092 81.48693012 -42.37645482 79.02477228 -41.375 76.5625 C-40.68870445 74.85173249 -40.00324457 73.14062952 -39.31860352 71.42919922 C-35.15124165 61.04011352 -30.88845519 50.69110462 -26.53833008 40.37719727 C-24.25815068 34.95881039 -22.09122409 29.51737739 -20.0625 24 C-11.318636 0.25246028 -11.318636 0.25246028 0 0 Z " fill="#313E43" transform="translate(362.3125,832.375)"/>
<path d="M0 0 C0.77214844 -0.00773438 1.54429687 -0.01546875 2.33984375 -0.0234375 C6.23631468 -0.00993153 8.18987247 0.04324831 11.5 2.25 C11.76653946 5.2295099 11.84767784 7.9988582 11.79296875 10.9765625 C11.78872391 11.83937836 11.78447906 12.70219421 11.78010559 13.59115601 C11.76328392 16.35275197 11.72562598 19.11362383 11.6875 21.875 C11.67245764 23.74478114 11.65876846 25.6145737 11.64648438 27.484375 C11.61336906 32.07319658 11.56156339 36.66147544 11.5 41.25 C12.16 41.25 12.82 41.25 13.5 41.25 C13.83644531 40.47462891 13.83644531 40.47462891 14.1796875 39.68359375 C16.41259893 35.56790198 19.35691077 31.93775131 22.23120117 28.25390625 C25.42305754 24.13360182 28.32565651 19.97784447 31.04296875 15.52734375 C40.07964946 1.34774956 40.07964946 1.34774956 46.43017578 -0.69042969 C53.30908197 -1.62646643 62.13117239 -1.93441381 68.5 1.25 C68.20236187 7.3236781 65.43921502 10.18616439 61.5 14.4375 C60.30602592 15.76709361 59.11332332 17.09783008 57.921875 18.4296875 C57.04305664 19.40373535 57.04305664 19.40373535 56.14648438 20.39746094 C53.93273256 22.88825999 51.83689056 25.46498728 49.75 28.0625 C45.51590051 33.29424445 41.04953273 38.2917622 36.5 43.25 C38.06636445 48.09738822 40.85402131 51.59934149 43.9375 55.5625 C48.56663085 61.61817456 52.99730176 67.76177411 57.2565918 74.08251953 C59.78819285 77.82058313 62.39559571 81.47635359 65.11328125 85.08203125 C65.71793213 85.8910791 66.32258301 86.70012695 66.94555664 87.53369141 C68.12628202 89.10660739 69.31908059 90.67055031 70.52514648 92.22412109 C74.51798605 97.56922807 74.51798605 97.56922807 74.421875 101.20703125 C73.5 103.25 73.5 103.25 72.5 104.25 C64.79443266 105.29560151 54.45822584 106.63350541 47.61328125 102.51171875 C45.55695521 99.8777246 44.05512101 97.20697289 42.5 94.25 C41.35106247 92.62433318 40.20045562 90.99947134 39.01611328 89.39941406 C37.73295222 87.66444966 36.48388317 85.90937303 35.2421875 84.14453125 C34.80616211 83.52529785 34.37013672 82.90606445 33.92089844 82.26806641 C33.45200195 81.60210449 32.98310547 80.93614258 32.5 80.25 C31.39870444 78.69121762 30.29713061 77.13263181 29.1953125 75.57421875 C26.29355627 71.46847931 23.39584499 67.35991059 20.5 63.25 C14.80414172 68.43861273 14.80414172 68.43861273 11.98583984 75.32446289 C11.97351318 77.0065686 11.97351318 77.0065686 11.9609375 78.72265625 C11.93773437 79.95177734 11.91453125 81.18089844 11.890625 82.44726562 C11.88546875 83.72279297 11.8803125 84.99832031 11.875 86.3125 C11.84948212 88.8451498 11.81597686 91.37773516 11.7734375 93.91015625 C11.76747559 95.03043213 11.76151367 96.15070801 11.75537109 97.30493164 C11.50708786 100.16825918 10.98608961 101.82523034 9.5 104.25 C6.18751813 104.27888146 2.87506833 104.29675799 -0.4375 104.3125 C-1.38302734 104.32087891 -2.32855469 104.32925781 -3.30273438 104.33789062 C-4.65141602 104.34272461 -4.65141602 104.34272461 -6.02734375 104.34765625 C-6.85999756 104.35289307 -7.69265137 104.35812988 -8.55053711 104.36352539 C-10.5 104.25 -10.5 104.25 -11.5 103.25 C-11.61135096 100.12521667 -11.65740664 97.02233334 -11.66113281 93.89672852 C-11.66609772 92.91468445 -11.67106262 91.93264038 -11.67617798 90.9208374 C-11.69083999 87.65685335 -11.69760788 84.39291788 -11.703125 81.12890625 C-11.70887259 78.87068174 -11.71463036 76.61245725 -11.72039795 74.35423279 C-11.73091908 69.61367565 -11.73675464 64.87313554 -11.74023438 60.13256836 C-11.74572514 54.04452951 -11.76976104 47.95671365 -11.79820633 41.86874485 C-11.8167864 37.20288933 -11.8220358 32.53708805 -11.82357025 27.87119865 C-11.82660719 25.62601437 -11.83467042 23.38083127 -11.84775543 21.13568306 C-11.86472128 18.00116903 -11.86295903 14.86720672 -11.85644531 11.73266602 C-11.8656601 10.79700302 -11.87487488 9.86134003 -11.8843689 8.89732361 C-11.87879974 8.04618988 -11.87323059 7.19505615 -11.86749268 6.31813049 C-11.86895924 5.57646417 -11.8704258 4.83479784 -11.8719368 4.07065678 C-10.77892855 -1.27969542 -4.21982687 -0.04226872 0 0 Z " fill="#303E43" transform="translate(438.5,832.75)"/>
<path d="M0 0 C8.45767334 -0.02312659 16.91533356 -0.0409167 25.37303066 -0.05181217 C29.29988658 -0.05704031 33.22672094 -0.06413669 37.15356445 -0.07543945 C40.94014257 -0.0862708 44.7266999 -0.09227736 48.51329231 -0.09487724 C49.96104319 -0.09673105 51.40879288 -0.10035081 52.85653496 -0.10573006 C54.87757135 -0.11294367 56.89862848 -0.11340808 58.91967773 -0.11352539 C60.64842384 -0.11685631 60.64842384 -0.11685631 62.41209412 -0.12025452 C65 0 65 0 66 1 C66.08651611 2.41570123 66.10704904 3.835595 66.09765625 5.25390625 C66.09282227 6.53491211 66.09282227 6.53491211 66.08789062 7.84179688 C66.07532227 9.18854492 66.07532227 9.18854492 66.0625 10.5625 C66.05798828 11.46419922 66.05347656 12.36589844 66.04882812 13.29492188 C66.03700225 15.53001314 66.0205222 17.76497437 66 20 C63.71368506 21.14315747 62.45652594 21.12112732 59.91748047 21.11352539 C58.65639969 21.11341209 58.65639969 21.11341209 57.36984253 21.11329651 C56.00727829 21.10555458 56.00727829 21.10555458 54.6171875 21.09765625 C53.68778351 21.0962413 52.75837952 21.09482635 51.80081177 21.09336853 C48.82550876 21.08776053 45.85028036 21.07520668 42.875 21.0625 C40.86067817 21.05748603 38.84635516 21.05292295 36.83203125 21.04882812 C31.8879688 21.03863838 26.94406815 21.01906453 22 21 C21.67 28.59 21.34 36.18 21 44 C25.20556641 43.98259766 25.20556641 43.98259766 29.49609375 43.96484375 C32.19995002 43.95705367 34.90380506 43.95097663 37.60766602 43.94506836 C39.4924373 43.94002756 41.37720465 43.93319502 43.26196289 43.92456055 C45.96501636 43.91248383 48.66801831 43.90676932 51.37109375 43.90234375 C52.21900986 43.89718246 53.06692596 43.89202118 53.9405365 43.88670349 C55.96071068 43.88650805 57.98077934 43.93793789 60 44 C61 45 61 45 61.09765625 48.81640625 C61.09098089 50.39846682 61.07901875 51.98051159 61.0625 53.5625 C61.05798828 54.36880859 61.05347656 55.17511719 61.04882812 56.00585938 C61.03700518 58.00393756 61.01906914 60.00197783 61 62 C57.72108075 63.63945963 54.09386466 63.12030178 50.4921875 63.09765625 C49.23125778 63.09553383 49.23125778 63.09553383 47.94485474 63.09336853 C45.25486725 63.08776237 42.56496241 63.07520886 39.875 63.0625 C38.05338662 63.05748579 36.23177193 63.05292275 34.41015625 63.04882812 C29.94004656 63.038641 25.47011601 63.01906685 21 63 C21 69.93 21 76.86 21 84 C36.18 84 51.36 84 67 84 C67.74480878 88.46885269 68.16173517 92.27722619 68.1875 96.75 C68.20167969 97.87921875 68.21585938 99.0084375 68.23046875 100.171875 C68 103 68 103 66 105 C63.26733398 105.26069641 63.26733398 105.26069641 59.74609375 105.2746582 C58.43133057 105.28419022 57.11656738 105.29372223 55.76196289 105.30354309 C54.32047499 105.3032817 52.87898708 105.30234482 51.4375 105.30078125 C49.96541217 105.30466639 48.49332547 105.30900068 47.02124023 105.31376648 C43.9343706 105.32123413 40.84761532 105.32093327 37.76074219 105.31567383 C33.799191 105.30987465 29.83810665 105.32681788 25.87663269 105.3500185 C22.83635711 105.36472795 19.79619474 105.36563145 16.75588989 105.36250877 C15.29500401 105.36302327 13.834112 105.36828507 12.3732605 105.37832069 C10.33351181 105.39061415 8.29366909 105.38197798 6.25390625 105.37231445 C4.51089233 105.37325859 4.51089233 105.37325859 2.73266602 105.3742218 C1.83088623 105.25072861 0.92910645 105.12723541 0 105 C-2.63767487 101.04348769 -2.28024063 97.64131978 -2.25878906 93.04980469 C-2.2622937 92.13402145 -2.26579834 91.21823822 -2.26940918 90.27470398 C-2.27822744 87.24035102 -2.27237503 84.20623043 -2.265625 81.171875 C-2.26697209 79.06300817 -2.26891298 76.95414164 -2.27142334 74.84527588 C-2.27437512 70.42009532 -2.27007693 65.99499541 -2.26074219 61.56982422 C-2.24937558 55.9061067 -2.2558891 50.24257932 -2.26788712 44.57886887 C-2.27512809 40.22077005 -2.27280701 35.86271598 -2.26763153 31.50461578 C-2.26629977 29.41708605 -2.26792611 27.32955223 -2.27259064 25.24202728 C-2.27768947 22.31716732 -2.26989719 19.3926109 -2.25878906 16.46777344 C-2.26283752 15.60933334 -2.26688599 14.75089325 -2.27105713 13.86643982 C-2.2360131 8.86656467 -1.60428315 4.74238401 0 0 Z " fill="#313E43" transform="translate(633,699)"/>
<path d="M0 0 C0.90643849 -0.00709439 1.81287699 -0.01418877 2.74678332 -0.02149814 C5.79105432 -0.0391323 8.83405771 -0.02094551 11.87831116 -0.00291443 C14.05795881 -0.0080512 16.23760232 -0.01533064 18.41723633 -0.02459717 C24.34292172 -0.04315113 30.26815861 -0.03014668 36.19382548 -0.01050687 C42.3894866 0.00584992 48.58511864 -0.00292922 54.78079224 -0.00802612 C65.85441545 -0.01284074 76.92784188 0.00683343 88.00142062 0.03665394 C98.04052826 0.06307289 108.07941606 0.06622937 118.11854553 0.05177307 C131.01962395 0.03327882 143.92053434 0.03495059 156.8216114 0.0539875 C161.74936139 0.0608658 166.67701626 0.05981749 171.60476494 0.05244255 C177.40704194 0.04478879 183.2089497 0.05687654 189.01116371 0.08429146 C191.14246906 0.09118618 193.27380883 0.09126168 195.40511322 0.08407593 C198.31126091 0.07540591 201.21626272 0.09129621 204.12231445 0.11352539 C204.96881229 0.10528462 205.81531012 0.09704386 206.68745941 0.08855337 C210.69670666 0.14528081 212.66774412 0.34149255 216.14579105 2.52388096 C218.38526181 4.90532345 218.80550994 5.84251586 218.74964905 9.06568909 C218.54758188 12.67912555 218.17926637 13.55688313 215.87464905 16.56568909 C210.69350873 20.45154433 206.9541389 20.91850894 200.51504517 20.8888855 C199.63719154 20.89271105 198.75933791 20.89653659 197.85488266 20.90047807 C194.90771622 20.91081263 191.96074443 20.90681504 189.01356506 20.90284729 C186.90288614 20.9071935 184.7922088 20.91237634 182.68153381 20.91833496 C176.94399691 20.93174573 171.20652579 20.93230133 165.46897626 20.92977166 C160.68249922 20.9287034 155.89603556 20.93358159 151.10956138 20.93837708 C139.8195772 20.94947938 128.52962629 20.94990556 117.23963928 20.94386292 C105.5846203 20.93782092 93.92972198 20.95013827 82.27472359 20.97143298 C72.27463973 20.98903358 62.27459433 20.99505279 52.27449554 20.99179524 C46.29901757 20.98997984 40.32362567 20.99264419 34.3481617 21.00650978 C28.72981874 21.01905846 23.11166425 21.01717205 17.49332428 21.00409889 C15.42973454 21.00172713 13.36613167 21.00448915 11.30255699 21.01272202 C8.48856304 21.0231404 5.67520723 21.0151283 2.86123657 21.00241089 C2.04197537 21.00978517 1.22271418 21.01715946 0.37862688 21.02475721 C-4.22478839 20.98089959 -7.21496033 20.48636632 -10.87535095 17.62818909 C-13.41893078 14.57589329 -13.8843874 13.13423007 -13.81285095 9.12818909 C-11.65623106 1.07680815 -7.83123626 -0.10920851 0 0 Z " fill="#313E43" transform="translate(392.87535095214844,306.37181091308594)"/>
<path d="M0 0 C1.35626088 -0.00128164 1.35626088 -0.00128164 2.73992097 -0.00258917 C5.78784592 -0.00424416 8.83571655 0.00127773 11.88363647 0.00672913 C14.06124368 0.00701102 16.23885098 0.00685322 18.41645813 0.00628662 C24.34384488 0.00599873 30.27121155 0.0118941 36.19859362 0.01886058 C42.38725719 0.02509552 48.57592118 0.02569803 54.7645874 0.02688599 C65.82343576 0.02982174 76.88227577 0.03705031 87.94112031 0.0465287 C101.95526523 0.05847654 115.969409 0.06465622 129.98355794 0.06993091 C157.44553589 0.08039436 184.90750558 0.09799301 212.36947632 0.12025452 C217.21563016 8.2548699 217.21563016 8.2548699 216.36947632 13.12025452 C214.56953857 15.82016113 213.28570332 17.66214102 210.36947632 19.12025452 C207.52131115 19.22492289 204.69723092 19.26804863 201.848526 19.26742554 C200.95604701 19.27110223 200.06356803 19.27477891 199.14404422 19.27856702 C196.1354423 19.28963319 193.12687487 19.29345264 190.11825562 19.29725647 C187.96846404 19.30351885 185.81867356 19.31016544 183.66888428 19.31716919 C177.81555165 19.33459861 171.9622272 19.34513599 166.10887504 19.35337472 C162.45476688 19.35852018 158.80066129 19.36459607 155.14655495 19.37088585 C143.72192553 19.38994232 132.2973026 19.40417316 120.87266034 19.41249782 C107.66932637 19.42227649 94.46615977 19.44861065 81.2628848 19.48899871 C71.06752015 19.51911944 60.87220359 19.5339628 50.6767953 19.53727883 C44.58275583 19.53963371 38.48889507 19.5486512 32.39490318 19.57374001 C26.663296 19.59695531 20.93198603 19.60128028 15.20034409 19.59097862 C13.09482016 19.59048158 10.98928193 19.59685145 8.88380241 19.61053467 C6.01263453 19.62815232 3.14254502 19.62119735 0.27137756 19.60800171 C-0.56481167 19.61897096 -1.4010009 19.6299402 -2.26252919 19.64124185 C-6.25349781 19.59685782 -8.17307024 19.41140632 -11.62439251 17.21477032 C-14.22735882 14.49712446 -14.58473535 13.60561087 -14.94302368 9.80775452 C-14.58176427 5.54489341 -13.61060314 4.10033398 -10.63052368 1.12025452 C-7.32338874 -0.53331295 -3.63507557 -0.01239752 0 0 Z " fill="#2E3B41" transform="translate(394.6305236816406,230.87974548339844)"/>
<path d="M0 0 C0.82773926 -0.00175232 1.65547852 -0.00350464 2.50830078 -0.00531006 C5.25221841 -0.00972178 7.99607192 -0.00679323 10.73999023 -0.00341797 C12.64045728 -0.00409114 14.54092424 -0.00506127 16.44139099 -0.00631714 C20.42691873 -0.00779314 24.41242408 -0.00564245 28.39794922 -0.00097656 C33.51855275 0.00472453 38.63910392 0.00143869 43.75970554 -0.00454903 C47.68434548 -0.00815397 51.6089729 -0.00701643 55.5336132 -0.00442123 C57.42235254 -0.00375198 59.31109299 -0.00458033 61.19983101 -0.00690079 C63.83377237 -0.00942665 66.46762759 -0.00558785 69.1015625 0 C69.88963791 -0.00202423 70.67771332 -0.00404846 71.4896698 -0.00613403 C76.87182064 0.01513119 76.87182064 0.01513119 77.98608398 1.12939453 C78.18964594 7.54159603 77.73036836 13.76310493 76.98608398 20.12939453 C76.32608398 20.12939453 75.66608398 20.12939453 74.98608398 20.12939453 C74.98608398 20.78939453 74.98608398 21.44939453 74.98608398 22.12939453 C65.41608398 22.12939453 55.84608398 22.12939453 45.98608398 22.12939453 C45.94849976 25.84757446 45.94849976 25.84757446 45.91015625 29.64086914 C45.82685103 37.81129655 45.73814376 45.98165879 45.64674473 54.15199947 C45.59147196 59.10790165 45.53804514 64.06380967 45.48876953 69.01977539 C45.44119002 73.79843524 45.38884981 78.57702095 45.33314323 83.35559273 C45.31269052 85.18290942 45.29398237 87.01024647 45.27700996 88.8375988 C45.25303024 91.38798287 45.22296734 93.9382255 45.19140625 96.48852539 C45.18565079 97.25169067 45.17989532 98.01485596 45.17396545 98.80114746 C45.10013615 104.01534237 45.10013615 104.01534237 43.98608398 105.12939453 C40.6816949 105.40703894 37.36326264 105.36114441 34.04858398 105.37939453 C33.11594727 105.40001953 32.18331055 105.42064453 31.22241211 105.44189453 C30.33102539 105.44705078 29.43963867 105.45220703 28.52124023 105.45751953 C27.70018799 105.46686523 26.87913574 105.47621094 26.03320312 105.48583984 C25.01987915 105.30939941 25.01987915 105.30939941 23.98608398 105.12939453 C21.36525195 101.19814649 21.75090452 97.92299124 21.82983398 93.36767578 C21.83793091 92.45383621 21.84602783 91.53999664 21.85437012 90.59846497 C21.8864947 87.44185091 21.93545043 84.28576402 21.98608398 81.12939453 C22.01998728 78.71191475 22.05383946 76.29443425 22.08764648 73.87695312 C22.19381079 66.69678747 22.31930003 59.51704288 22.449646 52.33728027 C22.51132955 48.91709745 22.57086701 45.49687724 22.63061523 42.07666016 C22.74718611 35.42753656 22.86579943 28.77845193 22.98608398 22.12939453 C22.09300537 22.13986816 21.19992676 22.1503418 20.27978516 22.16113281 C16.96432921 22.19523045 13.64905978 22.2203009 10.33349609 22.23925781 C8.89889586 22.24931153 7.4643161 22.26295647 6.02978516 22.28027344 C3.96698961 22.30455002 1.90446514 22.31588372 -0.15844727 22.32470703 C-1.39957275 22.33518066 -2.64069824 22.3456543 -3.91943359 22.35644531 C-7.01391602 22.12939453 -7.01391602 22.12939453 -10.01391602 20.12939453 C-10.35449219 18.15820312 -10.35449219 18.15820312 -10.30688477 15.77783203 C-10.2972168 14.92705078 -10.28754883 14.07626953 -10.27758789 13.19970703 C-10.25245117 12.31025391 -10.22731445 11.42080078 -10.20141602 10.50439453 C-10.18788086 9.60720703 -10.1743457 8.71001953 -10.16040039 7.78564453 C-10.12498526 5.56629664 -10.07560063 3.34814265 -10.01391602 1.12939453 C-6.85606387 -0.44953154 -3.46689614 -0.00892792 0 0 Z " fill="#313E43" transform="translate(538.013916015625,698.87060546875)"/>
<path d="M0 0 C0.93360352 0.56533447 1.86720703 1.13066895 2.82910156 1.71313477 C3.87638428 2.34461426 4.92366699 2.97609375 6.00268555 3.62670898 C7.08493408 4.29589355 8.16718262 4.96507812 9.28222656 5.65454102 C10.33804932 6.30696777 11.39387207 6.95939453 12.48168945 7.6315918 C15.69863933 9.64086423 18.89851571 11.67496344 22.09472656 13.71704102 C23.17431641 14.39831055 24.25390625 15.07958008 25.36621094 15.78149414 C40.63347914 25.52596146 40.63347914 25.52596146 43.28222656 31.65454102 C45.4919374 43.61023964 36.27016247 54.01187568 29.96972656 63.27954102 C29.22113533 64.38985128 28.47308503 65.50052644 27.72558594 66.61157227 C25.91639303 69.29618109 24.10188117 71.97701726 22.28222656 74.65454102 C10.03430181 68.68481943 -1.50507085 60.94196335 -12.77246094 53.31079102 C-17.58889951 50.05120648 -22.46612806 46.88554012 -27.34277344 43.71704102 C-28.19677734 43.16089111 -29.05078125 42.60474121 -29.93066406 42.03173828 C-33.82164132 39.5045408 -37.71326717 37.00003754 -41.71777344 34.65454102 C-39.139623 29.13052853 -35.56430242 24.1618181 -32.20605469 19.09179688 C-31.38352789 17.8464926 -30.56512887 16.59845163 -29.75097656 15.34765625 C-28.56676031 13.52838724 -27.37028716 11.71773945 -26.17089844 9.90844727 C-25.46094727 8.82893799 -24.75099609 7.74942871 -24.01953125 6.63720703 C-17.59631358 -1.68613305 -9.90154258 -4.90185062 0 0 Z " fill="#FCC66E" transform="translate(785.7177734375,205.345458984375)"/>
<path d="M0 0 C1.13464188 0.00607269 1.13464188 0.00607269 2.29220581 0.01226807 C3.08907806 0.00876343 3.88595032 0.00525879 4.70697021 0.00164795 C7.34875118 -0.00717566 9.99026573 -0.00131805 12.63204956 0.00543213 C14.46286063 0.00408566 16.29367136 0.00214528 18.1244812 -0.00036621 C21.96460366 -0.00331832 25.80463319 0.00098296 29.64474487 0.01031494 C34.5747365 0.02170953 39.50451039 0.01515052 44.43449402 0.00317001 C48.21592865 -0.00404624 51.99731139 -0.00176174 55.77874756 0.0034256 C57.5968834 0.00476275 59.4150239 0.00311211 61.2331543 -0.00153351 C63.77119482 -0.00659491 66.3088794 0.0011059 68.84689331 0.01226807 C69.60332123 0.0082196 70.35974915 0.00417114 71.13909912 0 C76.34102095 0.04252852 76.34102095 0.04252852 78.56954956 2.27105713 C79.01248498 5.25073289 78.89369384 8.26217578 78.88204956 11.27105713 C78.89816284 12.1037915 78.91427612 12.93652588 78.93087769 13.79449463 C78.93152222 14.59113525 78.93216675 15.38777588 78.93283081 16.20855713 C78.93581177 16.93945557 78.93879272 17.670354 78.94186401 18.42340088 C78.56954956 20.27105713 78.56954956 20.27105713 75.56954956 22.27105713 C72.47506714 22.49810791 72.47506714 22.49810791 68.71408081 22.46636963 C68.05244431 22.46353973 67.3908078 22.46070984 66.7091217 22.45779419 C64.59991219 22.44661631 62.49113031 22.42151694 60.38204956 22.39605713 C58.95041508 22.3860242 57.51877392 22.37689889 56.08712769 22.36871338 C52.58112979 22.34668508 49.07538143 22.31217198 45.56954956 22.27105713 C45.57177017 23.28361069 45.57399078 24.29616425 45.57627869 25.33940125 C45.5965101 34.86043363 45.6115217 44.38146168 45.62136173 53.90251064 C45.62659056 58.79791087 45.6336882 63.69329381 45.64498901 68.58868408 C45.6558179 73.3089369 45.6618264 78.02917305 45.6644268 82.74943733 C45.66628105 84.55444667 45.66990165 86.35945504 45.67527962 88.16445732 C45.68249008 90.68365357 45.6835405 93.20278003 45.68307495 95.72198486 C45.68667023 96.47579941 45.6902655 97.22961395 45.69396973 98.00627136 C45.68360172 103.15700497 45.68360172 103.15700497 44.56954956 104.27105713 C43.09302292 104.3698651 41.6118772 104.40184958 40.13204956 104.40386963 C38.7901355 104.40580322 38.7901355 104.40580322 37.42111206 104.40777588 C36.00958862 104.4019751 36.00958862 104.4019751 34.56954956 104.39605713 C33.15802612 104.40185791 33.15802612 104.40185791 31.71798706 104.40777588 C30.82337769 104.40648682 29.92876831 104.40519775 29.00704956 104.40386963 C28.1807605 104.4027417 27.35447144 104.40161377 26.50314331 104.40045166 C24.56954956 104.27105713 24.56954956 104.27105713 23.56954956 103.27105713 C23.47450705 100.74564711 23.44397798 98.24768587 23.45602417 95.72198486 C23.45587814 94.93179962 23.45573212 94.14161438 23.45558167 93.32748413 C23.45628099 90.70317891 23.46407429 88.07894377 23.47189331 85.45465088 C23.47375742 83.64004047 23.47518136 81.82542957 23.47618103 80.01081848 C23.48000677 75.22515483 23.48983752 70.43952133 23.50088501 65.65386963 C23.51109793 60.77431649 23.51567839 55.89475849 23.52072144 51.01519775 C23.53145974 41.43380427 23.54853683 31.8524332 23.56954956 22.27105713 C22.80287964 22.27629395 22.03620972 22.28153076 21.24630737 22.28692627 C17.77072978 22.30772077 14.29516529 22.32072521 10.81954956 22.33355713 C9.00970581 22.34612549 9.00970581 22.34612549 7.16329956 22.35894775 C5.42306519 22.36378174 5.42306519 22.36378174 3.64767456 22.36871338 C2.57936401 22.3739502 1.51105347 22.37918701 0.41036987 22.38458252 C-2.05434279 22.28608721 -4.08290511 21.98671177 -6.43045044 21.27105713 C-7.37662557 15.00264689 -8.05952087 8.60441029 -7.43045044 2.27105713 C-4.9260788 -0.23331451 -3.41729907 0.02793827 0 0 Z " fill="#303D42" transform="translate(239.43045043945313,832.7289428710938)"/>
<path d="M0 0 C1.10217065 0.00166865 1.10217065 0.00166865 2.22660738 0.003371 C4.69550882 0.00842099 7.16431911 0.02077563 9.63319397 0.03314209 C11.40052174 0.03837382 13.16785075 0.04320112 14.93518066 0.0476532 C19.74093221 0.06131466 24.54663133 0.08176063 29.35234904 0.10421848 C32.35299473 0.11807069 35.35364313 0.13071038 38.35429573 0.14296722 C47.73771031 0.18158309 57.12109351 0.22421413 66.50446218 0.27274251 C77.34584427 0.32879639 88.1871737 0.37180385 99.02865404 0.40342355 C107.40329113 0.42861436 115.77782971 0.46520167 124.15238196 0.51050925 C129.1569852 0.53733968 134.16149918 0.55932291 139.16616631 0.56952667 C143.87186141 0.57944826 148.57727291 0.60348348 153.28284645 0.63846016 C155.01141927 0.64886881 156.74003141 0.654168 158.46863556 0.65402794 C160.82552326 0.65461786 163.18157611 0.67348919 165.53833008 0.69702148 C167.51802748 0.70588316 167.51802748 0.70588316 169.53771877 0.71492386 C173.0147281 1.12389344 174.42307113 1.60957182 176.83265686 4.10247803 C178.03456587 7.70820507 178.15936001 10.31272152 177.83265686 14.10247803 C176.03703281 16.85576824 174.78010764 18.62875264 171.83265686 20.10247803 C169.48763734 20.20590379 167.13958423 20.24204423 164.79229736 20.24964905 C163.6924667 20.25516408 163.6924667 20.25516408 162.57041723 20.26079053 C160.10077592 20.27184919 157.63117667 20.27567488 155.16151428 20.27947998 C153.39595404 20.28574295 151.63039511 20.2923896 149.86483765 20.2993927 C145.0589931 20.31681704 140.25315851 20.3273582 135.44729018 20.33559823 C132.4464696 20.34074497 129.44565214 20.34682082 126.44483376 20.35310936 C117.0609081 20.37216477 107.67699033 20.3863956 98.29304904 20.39472133 C87.45155982 20.40449839 76.61027452 20.43082869 65.76885718 20.47122222 C57.39513319 20.5013537 49.02146776 20.51618735 40.64769059 20.51950234 C35.64351604 20.52185608 30.63955926 20.53085848 25.63544273 20.55596352 C20.92814478 20.57919761 16.2212087 20.58349632 11.51386833 20.57320213 C9.78568063 20.57270554 8.05747539 20.57906237 6.32934189 20.59275818 C3.97044757 20.61040761 1.61286172 20.60340633 -0.74603271 20.59022522 C-1.77269608 20.60667909 -1.77269608 20.60667909 -2.82010013 20.62346536 C-7.51300797 20.5601222 -9.86453017 19.39875625 -13.16734314 16.10247803 C-14.89249945 12.65216541 -14.66412238 8.87531499 -14.16734314 5.10247803 C-10.34667913 -0.16740337 -6.13693891 -0.02046395 0 0 Z " fill="#2E3B40" transform="translate(394.16734313964844,382.89752197265625)"/>
<path d="M0 0 C6.63140374 4.19513534 11.18827869 9.37504067 13.5546875 16.91796875 C14.37520493 21.46158404 14.60845776 25.89262843 14.6796875 30.50390625 C14.70772461 31.7563916 14.70772461 31.7563916 14.73632812 33.03417969 C14.64574758 41.87275016 11.08639546 49.80448347 5.1796875 56.37890625 C-3.37938588 63.11690019 -13.35479204 63.59388063 -23.8203125 62.37890625 C-31.25375272 60.35588138 -36.66265239 55.78633469 -40.8203125 49.37890625 C-45.98270769 40.11110479 -46.47222735 28.58051257 -44.125 18.34765625 C-40.79815772 9.28969911 -35.32062992 2.55991265 -26.6171875 -1.69921875 C-18.54787184 -4.35893732 -7.62906998 -3.68609947 0 0 Z " fill="#F9F6F1" transform="translate(483.8203125,720.62109375)"/>
<path d="M0 0 C1.14681747 -0.00860046 2.29363495 -0.01720093 3.47520447 -0.02606201 C4.73963882 -0.03032196 6.00407318 -0.03458191 7.30682373 -0.03897095 C8.64712233 -0.04687153 9.98741879 -0.05514045 11.32771301 -0.06375122 C15.73576829 -0.08997889 20.14383311 -0.10528069 24.55194092 -0.11953735 C26.06925208 -0.12489694 27.58656317 -0.13027445 29.10387421 -0.13566971 C35.41589154 -0.15730052 41.7279063 -0.17603685 48.03995132 -0.1872921 C57.08603533 -0.20352839 66.1316896 -0.23669554 75.17761159 -0.29369295 C81.53777805 -0.332401 87.89782961 -0.35192585 94.25811076 -0.35721266 C98.056844 -0.36086533 101.85511897 -0.37287629 105.65372467 -0.4053154 C109.22928121 -0.4354115 112.80410262 -0.44170305 116.37975883 -0.42993164 C118.31334695 -0.42960603 120.2468898 -0.45406232 122.18031311 -0.47930908 C131.663912 -0.41118944 131.663912 -0.41118944 135.38439941 2.55926514 C137.59881592 5.15390015 137.59881592 5.15390015 138.25506592 7.2515564 C137.69579842 14.28434514 137.69579842 14.28434514 135.59881592 17.15390015 C132.19102688 19.42575951 130.98938274 19.4081394 126.98799133 19.42132568 C125.82008057 19.42985565 124.6521698 19.43838562 123.4488678 19.44717407 C121.52484383 19.44581451 121.52484383 19.44581451 119.56195068 19.44442749 C118.19855378 19.45041129 116.83516028 19.45721649 115.47177124 19.46478271 C111.76723492 19.48246404 108.06279096 19.48713895 104.35821652 19.48841429 C101.26668474 19.49031264 98.1751745 19.49766933 95.08365101 19.50475848 C87.79076194 19.52104774 80.49792226 19.5259269 73.20501709 19.52450562 C65.67898911 19.52330366 58.15324767 19.54441472 50.62729222 19.57599294 C44.16776095 19.60213187 37.70832342 19.61287394 31.24873966 19.6115948 C27.38981523 19.6110845 23.53114545 19.61680457 19.67227364 19.6379509 C16.04341107 19.65729375 12.41504714 19.65748545 8.78616714 19.64291763 C6.81885113 19.63982454 4.85153529 19.65653315 2.8842926 19.67379761 C1.71356201 19.66540863 0.54283142 19.65701965 -0.66337585 19.64837646 C-2.18955111 19.65001077 -2.18955111 19.65001077 -3.74655819 19.65167809 C-7.11072875 19.02085101 -8.27078767 17.77218 -10.40118408 15.15390015 C-11.95142872 12.05341086 -11.69110424 9.57495797 -11.40118408 6.15390015 C-8.03230695 0.98828855 -5.98562276 0.03333207 0 0 Z " fill="#2E3B41" transform="translate(391.40118408203125,460.8460998535156)"/>
<path d="M0 0 C0.93928345 -0.00708481 1.87856689 -0.01416962 2.84631348 -0.02146912 C3.87495514 -0.0189917 4.9035968 -0.01651428 5.96340942 -0.01396179 C7.5906192 -0.02162819 7.5906192 -0.02162819 9.2507019 -0.02944946 C12.84656246 -0.04338063 16.44223208 -0.0423859 20.03811646 -0.04008484 C22.53291902 -0.04397007 25.02772093 -0.04830437 27.52252197 -0.05307007 C32.7564151 -0.06054004 37.99025862 -0.06037342 43.22415161 -0.05497742 C48.60182879 -0.04960724 53.97931768 -0.05664191 59.35696411 -0.07548523 C65.84434084 -0.09792767 72.33156014 -0.10574001 78.81897354 -0.10181236 C81.29333162 -0.10232629 83.76769336 -0.10757744 86.2420311 -0.11762428 C89.70142348 -0.12994538 93.16027584 -0.12322231 96.61965942 -0.11161804 C97.64425262 -0.11926178 98.66884583 -0.12690552 99.7244873 -0.13478088 C106.11448991 -0.08734689 109.77367 0.61343745 114.42092896 5.26069641 C115.19293887 9.82991789 115.01455883 13.31088861 112.54592896 17.26069641 C109.54886421 20.08146323 107.97423885 20.38725422 103.96884155 20.41459656 C103.03237793 20.42319702 102.09591431 20.43179749 101.131073 20.44065857 C100.1004071 20.44491852 99.06974121 20.44917847 98.00784302 20.4535675 C96.38326172 20.46583374 96.38326172 20.46583374 94.7258606 20.47834778 C91.12943073 20.50322986 87.53304041 20.51972504 83.93655396 20.53413391 C82.71023003 20.53945759 81.4839061 20.54478127 80.22042084 20.55026627 C74.39945167 20.57425026 68.57849886 20.59349004 62.75749421 20.60628831 C56.70990784 20.61984893 50.66269106 20.64615848 44.61526489 20.69282532 C38.12902161 20.74207042 31.64312241 20.76690552 25.15670013 20.77402115 C22.68313597 20.78074523 20.20957982 20.79599705 17.73612213 20.81991196 C14.27420377 20.85147399 10.81361705 20.85161296 7.35159302 20.8441925 C6.32902405 20.86059784 5.30645508 20.87700317 4.25289917 20.89390564 C-0.25419878 20.85434617 -3.56097489 20.78593731 -7.1958313 17.93907166 C-10.18423029 14.5805955 -10.65755369 12.73420707 -10.57907104 8.26069641 C-8.43201264 2.57099165 -6.18005388 0.01553491 0 0 Z " fill="#303D42" transform="translate(390.5790710449219,537.7393035888672)"/>
<path d="M0 0 C0.77915771 0.00410889 1.55831543 0.00821777 2.36108398 0.01245117 C3.20735352 0.01438477 4.05362305 0.01631836 4.92553711 0.01831055 C5.81047852 0.03055664 6.69541992 0.04280273 7.60717773 0.05541992 C8.49598633 0.05606445 9.38479492 0.05670898 10.30053711 0.05737305 C16.90446676 0.10270895 16.90446676 0.10270895 18.04467773 1.24291992 C18.1399481 2.58364809 18.16656543 3.92934496 18.16493225 5.27345276 C18.16630692 6.14148529 18.16768158 7.00951782 18.1690979 7.90385437 C18.16550262 8.86338516 18.16190735 9.82291595 18.15820312 10.81152344 C18.15834915 11.81628723 18.15849518 12.82105103 18.15864563 13.85626221 C18.15794604 17.1948051 18.15015147 20.53329297 18.14233398 23.87182617 C18.14046997 26.1796821 18.13904599 28.48753843 18.13804626 30.7953949 C18.13421978 36.88309818 18.12438838 42.97077778 18.11334229 49.05847168 C18.10313097 55.26513346 18.09854925 61.47179905 18.09350586 67.6784668 C18.08276623 79.86662827 18.06568825 92.05477213 18.04467773 104.24291992 C14.56552833 104.27179806 11.08640943 104.28967679 7.60717773 104.30541992 C6.11734375 104.31798828 6.11734375 104.31798828 4.59741211 104.33081055 C3.65317383 104.3340332 2.70893555 104.33725586 1.73608398 104.34057617 C0.86153564 104.34581299 -0.0130127 104.3510498 -0.9140625 104.35644531 C-2.95532227 104.24291992 -2.95532227 104.24291992 -3.95532227 103.24291992 C-4.06134092 100.1180495 -4.1020965 97.01515818 -4.10058594 93.88964844 C-4.10394455 92.90760437 -4.10730316 91.9255603 -4.11076355 90.91375732 C-4.12030501 87.6497676 -4.12221824 84.38582899 -4.12329102 81.12182617 C-4.12650132 78.86360146 -4.12986522 76.60537697 -4.13337708 74.34715271 C-4.13937631 69.60659299 -4.14121616 64.86605153 -4.140625 60.12548828 C-4.14052332 54.03749907 -4.15417807 47.94962635 -4.17139721 41.86166477 C-4.18249095 37.19581052 -4.18454502 32.52998467 -4.18401527 27.86411858 C-4.18519927 25.61894263 -4.18964432 23.37376603 -4.19734764 21.12860298 C-4.2070949 17.9941799 -4.20429042 14.86001274 -4.19824219 11.72558594 C-4.20386169 10.78992294 -4.2094812 9.85425995 -4.215271 8.89024353 C-4.21107651 8.0391098 -4.20688202 7.18797607 -4.20256042 6.31105042 C-4.20310519 5.56938409 -4.20364996 4.82771776 -4.20421124 4.0635767 C-3.82828575 1.31363047 -2.72452714 0.33848227 0 0 Z " fill="#2F3C41" transform="translate(530.955322265625,832.757080078125)"/>
<path d="M0 0 C4.85529804 3.11844345 9.56380751 6.39575573 14.18530273 9.84863281 C21.24003931 15.11514184 28.47284024 19.89302334 35.96875 24.50390625 C40.18946243 27.10357545 44.35697697 29.77841807 48.5 32.5 C49.15355469 32.921604 49.80710937 33.34320801 50.48046875 33.77758789 C52.02364324 34.79835095 53.51777543 35.89259084 55 37 C55 37.66 55 38.32 55 39 C54.35788574 39.3309668 53.71577148 39.66193359 53.05419922 40.00292969 C49.99310862 41.58267206 46.9339594 43.16613484 43.875 44.75 C42.75383789 45.3289502 41.63267578 45.90790039 40.47753906 46.50439453 C34.80913202 49.44548892 29.17899138 52.43167951 23.6171875 55.5703125 C22.62734863 56.1262207 21.63750977 56.68212891 20.61767578 57.25488281 C18.73670696 58.31755173 16.86236936 59.39206334 14.99560547 60.47949219 C14.14627441 60.95805664 13.29694336 61.43662109 12.421875 61.9296875 C11.68549805 62.35491699 10.94912109 62.78014648 10.19042969 63.21826172 C7.38009214 64.22123773 5.82118245 63.88821374 3 63 C0.140625 60.96875 0.140625 60.96875 -2.75 58.5 C-3.71421875 57.6853125 -4.6784375 56.870625 -5.671875 56.03125 C-8 54 -8 54 -9 53 C-8.46651618 46.47458207 -7.34963788 40.1132334 -6.125 33.6875 C-4.53819839 25.20619397 -3.14711421 16.7159669 -1.95166016 8.1706543 C-1.10077181 2.20154362 -1.10077181 2.20154362 0 0 Z " fill="#DED1C2" transform="translate(566,514)"/>
<path d="M0 0 C5.05710642 0.50668504 8.47086784 2.96591991 12.5625 5.75 C13.22185547 6.18054688 13.88121094 6.61109375 14.56054688 7.0546875 C19.01969608 10.04836757 22.54812707 13.09625415 25 18 C26.83887453 30.1891112 18.16286552 40.10002087 11.6875 49.625 C10.93890877 50.73531026 10.19085847 51.84598543 9.44335938 52.95703125 C7.63416647 55.64164008 5.81965461 58.32247625 4 61 C-0.77274984 58.68045036 -5.26479736 55.91480245 -9.8125 53.1875 C-10.68970703 52.66607422 -11.56691406 52.14464844 -12.47070312 51.60742188 C-17.48410177 48.60388237 -22.29746631 45.47076497 -27 42 C-21.5128247 34.63915508 -21.5128247 34.63915508 -19.46484375 32.08666992 C-14.90747289 26.36770356 -10.9457785 20.41837604 -7.125 14.1875 C-6.54492188 13.26001953 -5.96484375 12.33253906 -5.3671875 11.37695312 C-4.81546875 10.48298828 -4.26375 9.58902344 -3.6953125 8.66796875 C-3.20047363 7.86641357 -2.70563477 7.0648584 -2.19580078 6.23901367 C-1.07138806 4.13366678 -0.45259611 2.33196979 0 0 Z " fill="#FBC24F" transform="translate(804,219)"/>
<path d="M0 0 C8.57991074 5.42961954 17.10880367 10.93636166 25.62744141 16.46142578 C27.2440008 17.50974409 28.86087568 18.55757603 30.47802734 19.60498047 C41.37057729 26.66026287 52.22436275 33.76726166 63 41 C62.23302204 42.41875765 61.46123222 43.83491452 60.6875 45.25 C60.04361328 46.43335938 60.04361328 46.43335938 59.38671875 47.640625 C58.0603786 49.89727134 56.61115776 51.93998597 55 54 C49.70803666 52.54553181 45.74236142 50.08829914 41.25 47.0625 C35.32090502 43.14225054 29.34167577 39.34969688 23.25 35.6875 C16.20748311 31.42741481 9.29808733 26.98459278 2.4375 22.4375 C1.51420898 21.8293042 0.59091797 21.2211084 -0.36035156 20.59448242 C-1.21209961 20.02576416 -2.06384766 19.4570459 -2.94140625 18.87109375 C-3.70138916 18.36505615 -4.46137207 17.85901855 -5.24438477 17.33764648 C-7 16 -7 16 -8 14 C-6.75717988 11.54961707 -5.47117661 9.226675 -4.0625 6.875 C-3.48338867 5.88693359 -3.48338867 5.88693359 -2.89257812 4.87890625 C-1.93553422 3.248387 -0.96867185 1.62363816 0 0 Z " fill="#DACCBB" transform="translate(733,254)"/>
<path d="M0 0 C0.6084375 0.38929688 1.216875 0.77859375 1.84375 1.1796875 C2.7203125 1.73914063 3.596875 2.29859375 4.5 2.875 C5.98693359 3.82439453 5.98693359 3.82439453 7.50390625 4.79296875 C10.03939346 6.4022978 12.59164819 7.98189196 15.15234375 9.55078125 C15.86132812 9.98729004 16.5703125 10.42379883 17.30078125 10.87353516 C18.70296167 11.73579921 20.10783544 12.59370185 21.515625 13.44677734 C22.16917969 13.84977051 22.82273437 14.25276367 23.49609375 14.66796875 C24.07544678 15.02141357 24.6547998 15.3748584 25.25170898 15.73901367 C27 17 27 17 31 21 C27.04 26.94 27.04 26.94 23 33 C16.25390219 30.75130073 16.25390219 30.75130073 13.046875 28.609375 C12.34941162 28.14958252 11.65194824 27.68979004 10.93334961 27.21606445 C10.21284424 26.73226318 9.49233887 26.24846191 8.75 25.75 C7.24692376 24.757856 5.74302007 23.76696439 4.23828125 22.77734375 C3.51463379 22.30022949 2.79098633 21.82311523 2.04541016 21.33154297 C-1.8961172 18.76564535 -5.93638547 16.36628168 -10 14 C-8.6875 11.5 -8.6875 11.5 -7 9 C-6.01 9 -5.02 9 -4 9 C-4 7.35 -4 5.7 -4 4 C-3.34 4 -2.68 4 -2 4 C-2 3.34 -2 2.68 -2 2 C-1.34 2 -0.68 2 0 2 C0 1.34 0 0.68 0 0 Z " fill="#AB9F8B" transform="translate(765,275)"/>
<path d="M0 0 C3.11212844 1.55606422 3.24411611 4.03305501 4.34765625 7.265625 C4.56441513 7.89603699 4.78117401 8.52644897 5.00450134 9.17596436 C5.46262304 10.51309292 5.91716116 11.85145376 6.3684082 13.19091797 C7.05589019 15.23039144 7.7544547 17.26578978 8.45507812 19.30078125 C10.23645624 24.51848121 11.91592403 29.57962014 13 35 C4.42 35 -4.16 35 -13 35 C-8.90969907 23.22791439 -4.58143417 11.58913082 0 0 Z " fill="#F7F5F1" transform="translate(362,865)"/>
<path d="M0 0 C6.72319142 1.81192393 12.64590586 4.45598157 18 9 C18 9.66 18 10.32 18 11 C17.34 11 16.68 11 16 11 C16 11.66 16 12.32 16 13 C15.34 13 14.68 13 14 13 C14 14.65 14 16.3 14 18 C13.01 18 12.02 18 11 18 C10.67 18.99 10.34 19.98 10 21 C5.70998507 20.09245169 2.39877778 17.96852394 -1.25 15.625 C-1.8996875 15.22539062 -2.549375 14.82578125 -3.21875 14.4140625 C-4.86921808 13.35998205 -6.44236276 12.18696955 -8 11 C-8 10.01 -8 9.02 -8 8 C-7.01 8 -6.02 8 -5 8 C-4.67 6.68 -4.34 5.36 -4 4 C-3.34 4 -2.68 4 -2 4 C-1.34 2.68 -0.68 1.36 0 0 Z " fill="#CCBEAB" transform="translate(747,266)"/>
<path d="M0 0 C10.23 0 20.46 0 31 0 C31.02118176 7.28887874 31.04119022 14.57764094 31.05175018 21.86652374 C31.05695209 25.26349259 31.06443666 28.66041523 31.07543945 32.05737305 C31.12803442 48.7361648 30.91459313 65.34450638 30 82 C27.58692259 78.38038388 27.73058785 75.76926629 27.77294922 71.59106445 C27.77265717 70.83960144 27.77236511 70.08813843 27.77206421 69.31390381 C27.77345747 66.83024547 27.78901834 64.34688718 27.8046875 61.86328125 C27.80841765 60.14121159 27.81126461 58.4191398 27.81326294 56.69706726 C27.82089927 52.16456238 27.84054775 47.63218568 27.8626709 43.09973145 C27.88312933 38.47470839 27.89226465 33.84966463 27.90234375 29.22460938 C27.92379365 20.14968327 27.9579296 11.07485229 28 2 C27.25838623 2.01047363 26.51677246 2.02094727 25.75268555 2.03173828 C22.39765807 2.07327196 19.04268467 2.09931789 15.6875 2.125 C14.52025391 2.14175781 13.35300781 2.15851562 12.15039062 2.17578125 C10.47299805 2.18544922 10.47299805 2.18544922 8.76171875 2.1953125 C7.2142395 2.21102295 7.2142395 2.21102295 5.63549805 2.22705078 C3 2 3 2 0 0 Z " fill="#EAEAE7" transform="translate(530,721)"/>
<path d="M0 0 C0.33 0 0.66 0 1 0 C1.04631189 8.94465318 1.08186333 17.88926518 1.10362434 26.83401203 C1.11406779 30.98728478 1.12823719 35.14047559 1.15087891 39.29370117 C1.17258734 43.30074559 1.1845644 47.30771112 1.18975449 51.3148098 C1.19345384 52.84464955 1.20067765 54.37448492 1.21146011 55.90429115 C1.22594863 58.04476933 1.22797908 60.18492025 1.22705078 62.32543945 C1.231492 63.54455521 1.23593323 64.76367096 1.24050903 66.01972961 C1 69 1 69 -1 72 C-1.17719915 63.35084108 -1.3431378 54.70156026 -1.49477577 46.05191517 C-1.56554259 42.0353748 -1.64016002 38.01898354 -1.72363281 34.00268555 C-1.8040729 30.12544434 -1.87432578 26.24813912 -1.93757248 22.37058067 C-1.96346022 20.89257719 -1.99299421 19.41463285 -2.02626419 17.93677711 C-2.07230149 15.8638969 -2.10527115 13.7911837 -2.13525391 11.71801758 C-2.15746002 10.53887283 -2.17966614 9.35972809 -2.20254517 8.14485168 C-1.99994364 4.99912499 -1.34803665 2.82798928 0 0 Z " fill="#EBE8E0" transform="translate(658,536)"/>
<path d="M0 0 C7.59 0 15.18 0 23 0 C22.67 0.99 22.34 1.98 22 3 C18.70849875 3.08685287 15.4172904 3.14033895 12.125 3.1875 C11.18785156 3.21263672 10.25070312 3.23777344 9.28515625 3.26367188 C8.38925781 3.27333984 7.49335938 3.28300781 6.5703125 3.29296875 C5.74289551 3.3086792 4.91547852 3.32438965 4.06298828 3.34057617 C3.38220215 3.22818604 2.70141602 3.1157959 2 3 C1.34 2.01 0.68 1.02 0 0 Z " fill="#F1F1ED" transform="translate(388,937)"/>
<path d="M0 0 C0.33 0 0.66 0 1 0 C0.93489583 1.88802083 0.86979167 3.77604167 0.8046875 5.6640625 C1.19316349 10.3102354 2.08217382 13.1758858 5.6015625 16.3359375 C7.09816406 17.34527344 7.09816406 17.34527344 8.625 18.375 C9.62789062 19.06335938 10.63078125 19.75171875 11.6640625 20.4609375 C12.43492187 20.96882812 13.20578125 21.47671875 14 22 C13.34 22.33 12.68 22.66 12 23 C10.04018443 21.54362329 8.08211453 20.08499848 6.125 18.625 C5.56941406 18.2125 5.01382813 17.8 4.44140625 17.375 C2.1649876 15.6745427 0.0120881 14.0120881 -2 12 C-2.01171875 9.94140625 -2.01171875 9.94140625 -1.6875 7.5625 C-1.58824219 6.78003906 -1.48898437 5.99757813 -1.38671875 5.19140625 C-1 3 -1 3 0 0 Z " fill="#EEE6DA" transform="translate(559,555)"/>
<path d="M0 0 C7.25904881 4.67438749 14.13458887 9.7725296 21 15 C16.91697335 15 14.68414006 12.92661787 11.5 10.625 C10.34379087 9.80462989 9.18754218 8.98431554 8.03125 8.1640625 C7.0309375 7.44992187 6.030625 6.73578125 5 6 C4.01 5.34 3.02 4.68 2 4 C1.01 7.465 1.01 7.465 0 11 C-0.33 11 -0.66 11 -1 11 C-1.0270043 9.54176788 -1.04639787 8.08339325 -1.0625 6.625 C-1.07410156 5.81289063 -1.08570313 5.00078125 -1.09765625 4.1640625 C-1 2 -1 2 0 0 Z " fill="#EAE2D5" transform="translate(566,514)"/>
<path d="M0 0 C3.04516202 2.83332467 5.16868601 5.65500311 7.25 9.25 C8.03117188 10.58804688 8.03117188 10.58804688 8.828125 11.953125 C9.21484375 12.62859375 9.6015625 13.3040625 10 14 C6.22929351 12.3327868 4.9290626 10.66521894 3 7 C2.34 8.32 1.68 9.64 1 11 C0.67 11 0.34 11 0 11 C0 7.37 0 3.74 0 0 Z " fill="#EFEFEE" transform="translate(596,874)"/>
<path d="M0 0 C4.38200028 0.53786285 6.88872893 2.09284211 10.375 4.75 C11.32761719 5.46671875 12.28023437 6.1834375 13.26171875 6.921875 C14.16535156 7.60765625 15.06898438 8.2934375 16 9 C17.39155578 10.00594394 18.7866042 11.00710441 20.1875 12 C21.115625 12.66 22.04375 13.32 23 14 C19.41152676 14 18.30076094 13.13497147 15.33203125 11.19140625 C14.43935547 10.60939453 13.54667969 10.02738281 12.62695312 9.42773438 C11.69818359 8.81220703 10.76941406 8.19667969 9.8125 7.5625 C8.87212891 6.95083984 7.93175781 6.33917969 6.96289062 5.70898438 C1.87122896 2.36746602 1.87122896 2.36746602 0 1 C0 0.67 0 0.34 0 0 Z " fill="#E9753F" transform="translate(602,517)"/>
<path d="M0 0 C0.99 0 1.98 0 3 0 C2.42365861 4.75481646 0.44931479 7.97048212 -2 12 C-3.2077558 8.37673261 -2.54311128 7.35853631 -1 4 C-4.3 3.67 -7.6 3.34 -11 3 C-11 2.67 -11 2.34 -11 2 C-10.28972656 1.93941406 -9.57945312 1.87882813 -8.84765625 1.81640625 C-7.46900391 1.69072266 -7.46900391 1.69072266 -6.0625 1.5625 C-5.14597656 1.48128906 -4.22945312 1.40007813 -3.28515625 1.31640625 C-1.03840268 1.23955024 -1.03840268 1.23955024 0 0 Z " fill="#F1F1ED" transform="translate(747,899)"/>
<path d="M0 0 C3.63 2.31 7.26 4.62 11 7 C10.01 7.33 9.02 7.66 8 8 C5.96868328 6.71488126 3.96722008 5.38123963 2 4 C1.34 4 0.68 4 0 4 C-0.33 4.99 -0.66 5.98 -1 7 C-1.66 7 -2.32 7 -3 7 C-3.33 8.32 -3.66 9.64 -4 11 C-4.33 10.34 -4.66 9.68 -5 9 C-3.55669869 5.86435715 -1.74680549 2.98235084 0 0 Z " fill="#E6DBCB" transform="translate(733,254)"/>
<path d="M0 0 C0.33 0 0.66 0 1 0 C1 8.25 1 16.5 1 25 C-0.32 23.35 -1.64 21.7 -3 20 C-2 18 -2 18 -1 17 C-0.76298761 14.14122091 -0.57780818 11.30116703 -0.4375 8.4375 C-0.39431641 7.63119141 -0.35113281 6.82488281 -0.30664062 5.99414062 C-0.20024738 3.99631195 -0.09959112 1.9981793 0 0 Z " fill="#EFEEEB" transform="translate(370,738)"/>
<path d="M0 0 C4 4 4 4 5 7 C3.68 6.67 2.36 6.34 1 6 C1 11.61 1 17.22 1 23 C0.67 23 0.34 23 0 23 C0 15.41 0 7.82 0 0 Z " fill="#E5E5E3" transform="translate(327,739)"/>
<path d="M0 0 C0.66 0 1.32 0 2 0 C0.4722133 3.43752007 -1.50181056 6.18953688 -4 9 C-4.66 9 -5.32 9 -6 9 C-6 9.66 -6 10.32 -6 11 C-6.66 10.67 -7.32 10.34 -8 10 C-7.04367001 8.70684939 -6.08486149 7.41553147 -5.125 6.125 C-4.59132813 5.40570313 -4.05765625 4.68640625 -3.5078125 3.9453125 C-2 2 -2 2 0 0 Z " fill="#2B383E" transform="translate(754,193)"/>
<path d="M0 0 C3.59854349 1.1995145 4.18616815 2.27925223 6.25 5.375 C7.06210937 6.56222656 7.06210937 6.56222656 7.890625 7.7734375 C9 10 9 10 8 13 C6.66094733 11.2126038 5.32890934 9.41995047 4 7.625 C3.2575 6.62726562 2.515 5.62953125 1.75 4.6015625 C0 2 0 2 0 0 Z " fill="#EEEDEC" transform="translate(476,879)"/>
<path d="M0 0 C0.33 0.66 0.66 1.32 1 2 C-2.11016455 5.28788824 -5.01618925 7.83735988 -9 10 C-7.84906278 6.54718834 -6.6794007 5.61917837 -3.9375 3.3125 C-2.83728516 2.37857422 -2.83728516 2.37857422 -1.71484375 1.42578125 C-1.14894531 0.95527344 -0.58304687 0.48476563 0 0 Z " fill="#E8E8E7" transform="translate(491,771)"/>
<path d="M0 0 C0.66 0.33 1.32 0.66 2 1 C-0.64 3.97 -3.28 6.94 -6 10 C-6.66 9.34 -7.32 8.68 -8 8 C-5.36 5.36 -2.72 2.72 0 0 Z " fill="#1D2B33" transform="translate(260,155)"/>
<path d="M0 0 C0.66 0.66 1.32 1.32 2 2 C2.66 1.67 3.32 1.34 4 1 C4.33 1.99 4.66 2.98 5 4 C3.6875 6.1875 3.6875 6.1875 2 8 C1.34 8 0.68 8 0 8 C0 5.36 0 2.72 0 0 Z " fill="#EFEDEA" transform="translate(450,866)"/>
<path d="M0 0 C3.74153737 1.24717912 5.37517516 3.09887781 8 6 C8.33 6.99 8.66 7.98 9 9 C8.01 8.67 7.02 8.34 6 8 C6 7.34 6 6.68 6 6 C5.38125 5.7525 4.7625 5.505 4.125 5.25 C1.64931313 3.79371361 1.04874998 2.62187494 0 0 Z " fill="#E9E9E7" transform="translate(251,635)"/>
<path d="M0 0 C2 1 2 1 2.6328125 2.84765625 C2.79523438 3.57855469 2.95765625 4.30945313 3.125 5.0625 C3.29257812 5.79597656 3.46015625 6.52945313 3.6328125 7.28515625 C3.75398438 7.85105469 3.87515625 8.41695312 4 9 C3.01 9 2.02 9 1 9 C1 7.35 1 5.7 1 4 C0.34 4 -0.32 4 -1 4 C-0.67 2.68 -0.34 1.36 0 0 Z " fill="#E5E5E3" transform="translate(362,865)"/>
<path d="M0 0 C1.65 0.99 3.3 1.98 5 3 C4.443125 3.12375 3.88625 3.2475 3.3125 3.375 C0.77885636 4.05976855 -1.57921032 4.99133763 -4 6 C-4 5.34 -4 4.68 -4 4 C-3.34 4 -2.68 4 -2 4 C-2 3.34 -2 2.68 -2 2 C-1.34 2 -0.68 2 0 2 C0 1.34 0 0.68 0 0 Z " fill="#B9AB96" transform="translate(765,275)"/>
<path d="M0 0 C0 3.38023517 -0.87455622 5.83468937 -2 9 C-2.99 8.67 -3.98 8.34 -5 8 C-3.62845496 5.04590299 -2.01136276 2.55991624 0 0 Z " fill="#F3D479" transform="translate(749,232)"/>
<path d="M0 0 C0.66 0.33 1.32 0.66 2 1 C0.8141763 4.37503669 -0.27573689 6.64722731 -3 9 C-2.5020163 5.26512223 -2.12508244 3.18762365 0 0 Z " fill="#1E2B31" transform="translate(352,834)"/>
<path d="M0 0 C-1.39332574 3.36720387 -2.9789286 4.9859524 -6 7 C-5.37162381 3.35541809 -4.14650034 0 0 0 Z " fill="#DDDDDC" transform="translate(259,155)"/>
</svg>
